<svg id="Capa_1" enable-background="new 0 0 512 512" height="512" viewBox="0 0 512 512" width="512" xmlns="http://www.w3.org/2000/svg"><g><g><path d="m313.827 233.851h20.878v44.298h-20.878z" fill="#f2cdbe"/><path d="m409.6 307.2c0-22.292-14.247-41.257-34.132-48.286-5.339-1.887-51.202 26.91-51.202 26.91s-45.863-28.798-51.202-26.91c-19.885 7.029-34.132 25.994-34.132 48.286v51.2c0 9.426 7.641 17.067 17.067 17.067h136.533c9.426 0 17.067-7.641 17.067-17.067v-51.2z" fill="#c9dbfd"/><g><path d="m341.333 307.2 7.879 45.967c.401 3.207-1.045 6.366-3.734 8.159l-16.478 10.985c-2.866 1.911-6.6 1.911-9.467 0l-16.478-10.986c-2.689-1.793-4.135-4.951-3.734-8.159l7.879-45.966v-3.812h34.118z" fill="#e27f84"/></g><path d="m347.022 290.134-5.689 17.066h-34.133l-5.689-17.066 2.061-20.803 20.695-13.331 19.709 14.917z" fill="#ca6c75"/><path d="m375.467 129.399v75.401c0 28.568-23.398 51.672-52.075 51.193-28.073-.469-50.325-23.958-50.325-52.035v-74.558h102.4z" fill="#f6e2c1"/><g><path d="m307.199 199.726c-4.268 0-7.726-3.459-7.726-7.726v-4.267c0-4.267 3.459-7.726 7.726-7.726s7.726 3.459 7.726 7.726v4.267c.001 4.267-3.458 7.726-7.726 7.726z" fill="#817d84"/></g><g><path d="m341.333 199.726c-4.268 0-7.726-3.459-7.726-7.726v-4.267c0-4.267 3.459-7.726 7.726-7.726 4.268 0 7.726 3.459 7.726 7.726v4.267c.001 4.267-3.458 7.726-7.726 7.726z" fill="#817d84"/></g><path d="m351.772 129.399v75.401c0 24.175-16.756 44.432-39.286 49.802 3.506.842 7.151 1.328 10.905 1.391 28.678.479 52.075-22.624 52.075-51.193v-75.401z" fill="#f2d0ac"/><path d="m349.867 102.4h-51.2c-18.851 0-34.133 15.282-34.133 34.133v25.6c0 4.713 3.82 8.533 8.533 8.533 16.514 0 30.289-11.727 33.451-27.308.806-3.973 4.299-6.826 8.352-6.826h18.794c4.053 0 7.546 2.853 8.352 6.826 3.162 15.58 16.937 27.308 33.451 27.308 4.713 0 8.533-3.82 8.533-8.533v-25.6c0-18.851-15.282-34.133-34.133-34.133z" fill="#817d84"/><path d="m349.866 102.4h-23.694c18.851 0 34.133 15.282 34.133 34.133v25.6c0 1.592-.444 3.078-1.204 4.353 4.86 2.661 10.433 4.18 16.364 4.18 4.713 0 8.533-3.82 8.533-8.533v-25.6c.002-18.851-15.28-34.133-34.132-34.133z" fill="#5a5656"/><path d="m366.056 261.719-31.35-5.719c28.277 0 51.2 22.923 51.2 51.2v51.2c0 9.426-7.641 17.067-17.067 17.067h23.694c9.426 0 17.067-7.641 17.067-17.067v-51.2c0-22.292-14.247-41.257-34.132-48.286z" fill="#aecafc"/><g fill="#edf6ff"><path d="m273.069 258.924 11.38 32.195c2.343 6.628 11.246 7.739 15.146 1.889l24.672-37.008h-34.133c-5.986 0-11.726 1.037-17.065 2.924z"/><path d="m358.4 256h-34.133l24.672 37.008c3.9 5.849 12.803 4.739 15.146-1.889l11.38-32.195c-5.339-1.887-11.08-2.924-17.065-2.924z"/></g></g><g><g><path d="m512 375.467-31.775 63.549c-1.445 2.891-4.4 4.717-7.633 4.717h-296.652c-3.232 0-6.187-1.826-7.632-4.717l-31.775-63.549v-7.783h375.467z" fill="#b38a68"/><path d="m488.306 367.684v7.783l-31.775 63.55c-1.446 2.891-4.4 4.717-7.632 4.717h23.694c3.232 0 6.187-1.826 7.632-4.717l31.775-63.55v-7.783z" fill="#a87858"/><path d="m435.733 512h-222.933c-4.418 0-8-3.582-8-8v-86.4c0-4.418 3.582-8 8-8h222.933c4.418 0 8 3.582 8 8v86.4c0 4.418-3.582 8-8 8z" fill="#d2a677"/><path d="m435.492 409.6h-23.694c4.552 0 8.241 3.69 8.241 8.241v85.917c0 4.552-3.69 8.241-8.241 8.241h23.694c4.552 0 8.241-3.69 8.241-8.241v-85.917c0-4.551-3.689-8.241-8.241-8.241z" fill="#b38a68"/><path d="m512 375.467h-375.467v-26.133c0-4.418 3.582-8 8-8h359.467c4.418 0 8 3.582 8 8z" fill="#d2a677"/><path d="m503.758 341.333h-23.846c4.551 0 8.241 3.69 8.241 8.241v25.892h23.847v-25.892c0-4.551-3.69-8.241-8.242-8.241z" fill="#b38a68"/></g></g><path d="m196.266 0h-162.133c-18.851 0-34.133 15.282-34.133 34.133v102.4c0 18.851 15.282 34.133 34.133 34.133h73.955c1.846 0 3.643.599 5.12 1.707l52.338 39.253c5.626 4.219 13.653.205 13.653-6.827v-25.6c0-4.713 3.82-8.533 8.533-8.533h8.533c18.851 0 34.133-15.282 34.133-34.133v-102.4c.002-18.851-15.28-34.133-34.132-34.133z" fill="#edf6ff"/><path d="m196.266 0h-23.694c18.852 0 34.133 15.282 34.133 34.133v102.4c0 18.851-15.282 34.133-34.133 34.133h-8.533c-4.713 0-8.534 3.82-8.534 8.533v24.896l10.041 7.531c5.626 4.219 13.653.205 13.653-6.827v-25.6c0-4.713 3.82-8.533 8.534-8.533h8.533c18.852 0 34.133-15.282 34.133-34.133v-102.4c.001-18.851-15.281-34.133-34.133-34.133z" fill="#d8e2f3"/><g><path d="m196.267 41.86h-162.134c-4.268 0-7.726-3.459-7.726-7.726s3.459-7.726 7.726-7.726h162.134c4.268 0 7.726 3.459 7.726 7.726s-3.459 7.726-7.726 7.726z" fill="#817d84"/></g><g><path d="m196.267 75.993h-162.134c-4.268 0-7.726-3.459-7.726-7.726s3.459-7.726 7.726-7.726h162.134c4.268 0 7.726 3.459 7.726 7.726s-3.459 7.726-7.726 7.726z" fill="#817d84"/></g><g><path d="m196.267 110.127h-162.134c-4.268 0-7.726-3.459-7.726-7.726s3.459-7.726 7.726-7.726h162.134c4.268 0 7.726 3.459 7.726 7.726s-3.459 7.726-7.726 7.726z" fill="#817d84"/></g><g><path d="m110.934 144.26h-76.801c-4.268 0-7.726-3.459-7.726-7.726s3.459-7.726 7.726-7.726h76.801c4.268 0 7.726 3.459 7.726 7.726s-3.459 7.726-7.726 7.726z" fill="#817d84"/></g></g></svg>