<?xml version="1.0" encoding="iso-8859-1"?>
<!-- Generator: Adobe Illustrator 19.0.0, SVG Export Plug-In . SVG Version: 6.00 Build 0)  -->
<svg version="1.1" id="Capa_1" xmlns="http://www.w3.org/2000/svg" xmlns:xlink="http://www.w3.org/1999/xlink" x="0px" y="0px"
	 viewBox="0 0 504.1 504.1" style="enable-background:new 0 0 504.1 504.1;" xml:space="preserve">
<g>
	<path style="fill:#EDB288;" d="M51.4,144.25v43.8C51.4,188.05,2.5,162.75,51.4,144.25z"/>
	<path style="fill:#EDB288;" d="M267.8,188.05c0,0,48.9-25.3,0-43.8V188.05"/>
</g>
<path style="fill:#D4E1F4;" d="M324.5,474.85v3.1H162v-133.1l36.6-35.5h51.2c15.3,0,30.1,5,42.3,14.1l1.6,1
	c-11.3,17.8-17.3,38.5-17.2,59.6C276.1,420.45,294.1,454.65,324.5,474.85z M249.2,390.75c-0.1-6.5-2.7-12.7-7.3-17.2
	c-4.4-4.8-10.7-7.4-17.2-7.3h-0.5c-13.6,0.1-24.4,11.2-24.3,24.8c0.1,6.4,2.6,12.5,7.1,17c4.6,4.5,10.8,7.1,17.2,7.3h0.5
	C238.2,415.35,249.2,404.35,249.2,390.75z"/>
<path style="fill:#4B5D63;" d="M290,82.05H144.2c-18.5-1.1-32.9-16.5-32.9-35c-0.1-5.3,1.2-10.5,3.7-15.2c1.6-3.6,3.7-6.9,6.3-9.9
	c6.8-6.4,15.7-10,25.1-9.9h73.1c38.7-0.3,70.2,30.8,70.5,69.5C290,81.65,290,81.85,290,82.05z"/>
<path style="fill:#F7CAA5;" d="M264.9,82.05v103.4c-0.3,43.1-27.1,81.5-67.4,96.7c-11.7,4.2-24.1,6.4-36.6,6.3
	c-11.2,0.1-22.3-1.6-32.9-5.2c-15.2-5-29-13.6-40.2-25.1c-19.5-19.2-30.6-45.3-30.8-72.6v-61.7c0,0,50.2,7.8,87.2-41.8H264.9z"/>
<path style="fill:#00EFD1;" d="M241.9,373.55c4.6,4.6,7.2,10.8,7.3,17.2c0,13.6-11,24.6-24.6,24.6h-0.5c-6.5-0.2-12.6-2.8-17.2-7.3
	c-9.5-9.7-9.4-25.2,0.2-34.7c4.5-4.5,10.6-7,17-7.1h0.5C231.2,366.15,237.5,368.75,241.9,373.55z"/>
<path style="fill:#EDB288;" d="M198.6,308.75L198.6,308.75l-36.6,35.5l-34-35.5l0,0v-25.6c10.6,3.6,21.7,5.4,32.9,5.2
	c12.5,0.1,24.8-2,36.6-6.3l1,2.1v24.6H198.6z"/>
<path style="fill:#D4E1F4;" d="M81,309.25h47l34,35.5v133.2H5.8v-98.1c0.3-39,32-70.5,71.1-70.5H81V309.25z"/>
<path style="fill:#4B5D63;" d="M144.2,82.05L144.2,82.05c-37.1,49.6-87.2,41.8-87.2,41.8v-41.8c0,0,7.3-51.2,58-50.2
	c-2.5,4.7-3.8,9.9-3.7,15.2C111.3,65.55,125.7,80.95,144.2,82.05z"/>
<g>
	<path style="fill:#083863;" d="M116.5,179.15c-13.9-0.5-25.1-11.7-25.6-25.6v-4.7c0-4.3,3.5-7.8,7.8-7.8l0,0c4.3,0,7.8,3.5,7.8,7.8
		l0,0v4.7c0.5,5.3,4.7,9.4,9.9,9.9c5.5,0,9.9-4.4,9.9-9.9l0,0v-4.7c0-4.3,3.5-7.8,7.8-7.8l0,0c4.3,0,7.8,3.5,7.8,7.8l0,0v4.7
		C142.1,167.75,130.7,179.15,116.5,179.15L116.5,179.15z"/>
	<path style="fill:#083863;" d="M205.3,179.15c-6.7-0.2-13.1-3-17.8-7.8c-5-4.5-7.9-11-7.8-17.8v-4.7c0-4.3,3.5-7.8,7.8-7.8
		s7.8,3.5,7.8,7.8l0,0v4.7c0.1,2.6,1.2,5.1,3.1,6.8c1.6,2.1,4.2,3.2,6.8,3.1c5.5,0,9.9-4.4,9.9-9.9l0,0v-4.7c0-4.3,3.5-7.8,7.8-7.8
		s7.8,3.5,7.8,7.8l0,0v4.7C230.9,167.75,219.5,179.15,205.3,179.15L205.3,179.15z"/>
	<path style="fill:#083863;" d="M386,265.65c-38.6,0-72.8,18.5-94.4,47c-12.5-8.1-27-12.5-41.9-12.8h-46v-13
		c39.1-15.3,65.5-52.1,67.4-94h1.6c15.9,0,28.7-12.9,28.7-28.7c0.2-7.4-2.6-14.6-7.8-19.9c-5.5-5.5-13.1-8.5-20.9-8.4h-1v-45H290
		c4.2,0,7.8-5.2,7.8-9.4c0-43.5-34.9-78.8-78.4-79.4h-73.1c-11.5,0.2-22.5,5.1-30.3,13.6c-2.4,2.3-4.3,4.9-5.7,7.8
		c-41.8,2.1-61.4,38-62.7,57.5c-0.9,13.8,0,55.4,0,55.4h0.5c-7.3-0.1-14.4,2.9-19.3,8.4c-5.5,5.1-8.5,12.4-8.4,19.9
		c0,15.9,12.9,28.7,28.7,28.7h1c1.8,26.8,13.3,52.1,32.4,71.1c10.4,10.9,23.3,19.1,37.6,24v11.4H76.8c-43.3,0-76.8,37.1-76.8,80
		v98.2c0,4.2,1.6,9.9,5.7,9.9h318.7c1,0,1.6-1,2.6-1.6c17.5,10.2,37.4,15.6,57.7,15.7c0.4,0,0.8,0,1.2,0
		c65.3,0,118.2-52.9,118.2-118.2S451.3,265.65,386,265.65z M47,177.05c-6.3-0.3-11.3-5.6-11-12c0-0.2,0-0.4,0-0.6
		c-0.1-3.4,1.1-6.6,3.3-9.2c1.9-2.2,4.8-3.5,7.7-3.3V177.05z M224.2,373.05h0.5c4.5,0,8.8,2.2,11.5,5.7c3.4,3.1,5.3,7.5,5.2,12
		c-0.3,9.3-7.9,16.7-17.2,16.7c-4.4-0.2-8.5-2-11.5-5.2c-3.1-3.2-4.7-7.6-4.7-12C207.7,381.05,214.9,373.35,224.2,373.05
		C224.1,373.05,224.1,373.05,224.2,373.05z M272.7,152.05c3.5-0.2,6.9,1.2,9.4,3.7c2.6,2.2,4.1,5.5,4.2,8.9
		c-0.3,7.3-6.3,13.1-13.6,13.1h-1v-25.6h1V152.05z M121.8,35.55c1.4-3,3.2-5.8,5.2-8.4c4.9-5.6,11.9-9,19.3-9.4h73.1
		c31.9,0,58.5,26.1,62.2,57.5H144.7c-14.6-0.8-25.9-13.1-25.6-27.7C119.1,43.35,120,39.25,121.8,35.55z M62.7,82.55
		c0.6-6.2,8.4-36.6,40.2-41.8c-0.3,2.1-0.3,4.2,0,6.3c-0.5,17.3,9.7,33,25.6,39.7c-16.4,19.2-40.6,30.1-65.8,29.8
		C62.7,116.45,62,90.95,62.7,82.55z M92,252.85c-18.3-17.7-28.8-41.9-29.3-67.4v-53.3h1.6c32.9-0.6,63.8-16,84.1-41.8H256v95.1
		c-0.2,39.6-24.6,75.1-61.6,89.3c-20.5,7.4-43,7.8-63.7,1C116.2,271.25,103,263.35,92,252.85z M151.5,472.25H15.7v-92.4
		c-0.4-32.7,24.9-60,57.5-62.2v21.9c-7.4,1.7-14.3,5.3-19.9,10.4c-7.4,7.3-11.5,17.3-11.5,27.7v44.4c0,4.4,3.4,8.1,7.8,8.4h13.1
		c4.3,0,7.8-3.5,7.8-7.8s-3.5-7.8-7.8-7.8h-5.2v-37.1c0.1-6.3,2.7-12.4,7.3-16.7c4.3-4.3,10.1-6.8,16.2-6.8
		c13,0,23.5,10.5,23.5,23.5v37.1h-6.8c-4.3,0-7.8,3.5-7.8,7.8s3.5,7.8,7.8,7.8h15.7c4.1-0.5,7.1-4.2,6.8-8.4v-44.4
		c0-18.8-10.4-35-31.3-38.7v-23.5h35.5l27.2,32.4v124.4H151.5z M135.9,306.15v-13.1c7.9,2,15.9,3,24,3.1c9.5,0.4,19.1-0.8,28.2-3.7
		v13.6l-27.2,27.8L135.9,306.15z M167.2,472.25v-124.3l34.5-32.4h12.5v43.9c-10.4,3.7-23.5,16.2-23.5,31.3
		c1.3,17.7,15.7,31.6,33.4,32.4c17.6,0.2,32.1-13.8,32.3-31.4c0.1-9.1-3.6-17.8-10.4-23.9c-3.9-5.1-9.8-8.1-16.2-8.4v-43.9h20
		c11.8,0.3,23.4,3.8,33.3,10.3c-9.7,17.1-15.2,36.9-15.2,58c0,30.8,11.8,58.8,31,79.8c2.3,2.9,4.8,5.8,7.3,8.6H167.2z"/>
</g>
<g>
	<path style="fill:#00EFD1;" d="M386.1,351.95c17.6,0,31.9,14.3,31.9,31.9s-14.3,31.9-31.9,31.9s-31.9-14.3-31.9-31.9l0,0
		C354.3,366.25,368.5,351.95,386.1,351.95z"/>
	<path style="fill:#00EFD1;" d="M473.4,380.75c1.7,1,2.3,3.3,1.3,5c-0.3,0.5-0.7,0.9-1.3,1.3l-14.6,15.1
		c-40.3,39.7-105,39.7-145.2,0l-15.2-15.2c-1.6-1.8-1.6-4.5,0-6.3l15.2-14.6c39.9-40.1,104.7-40.3,144.8-0.4
		c0.1,0.1,0.3,0.3,0.4,0.4L473.4,380.75z M418,383.85c0-17.6-14.3-31.9-31.9-31.9s-31.9,14.3-31.9,31.9s14.3,31.9,31.9,31.9l0,0
		C403.7,415.75,418,401.45,418,383.85z"/>
</g>
<path style="fill:#00ACEA;" d="M386.1,282.65c55.9,0.1,101.1,45.5,101,101.4s-45.5,101.1-101.4,101c-20.1,0-39.8-6.1-56.5-17.3
	c-28-18.7-44.6-50.2-44.3-83.8c-0.3-55.6,44.6-100.9,100.2-101.2C385.5,282.65,385.8,282.65,386.1,282.65L386.1,282.65z
	 M466.6,386.75c1.6-1,2.1-3,1.2-4.6c-0.3-0.5-0.7-0.9-1.2-1.2l-13.5-13.5c-36.8-37-96.6-37.2-133.6-0.4c-0.1,0.1-0.3,0.3-0.4,0.4
	l-14,13.5c-1.5,1.6-1.5,4.1,0,5.8l14,14c37.1,36.6,96.8,36.6,134,0L466.6,386.75z"/>
<g>
	<path style="fill:#083863;" d="M386.1,439.75c-29.3,0.1-57.4-11.3-78.3-31.9l-15.2-15.2c-4.1-5-4.1-12.2,0-17.2l15.2-15.2
		c43.2-43,113-43,156.2,0l15.2,15.2c4.6,4.4,4.8,11.6,0.5,16.2c-0.2,0.2-0.3,0.3-0.5,0.5l-15.2,15.7
		C443.2,428.25,415.3,439.75,386.1,439.75z M306.7,383.85l12.5,12.5c36.9,36.9,96.8,36.9,133.7,0l0,0l12.5-12.5l-12.5-12.5
		c-36.5-36.9-96.1-37.3-133-0.8c-0.3,0.3-0.5,0.5-0.8,0.8L306.7,383.85z"/>
	<path style="fill:#083863;" d="M386.1,423.55c-21.9,0-39.7-17.8-39.7-39.7c0-21.9,17.8-39.7,39.7-39.7l0,0
		c21.9,0,39.7,17.8,39.7,39.7C425.8,405.75,408.1,423.55,386.1,423.55z M386.1,359.85c-13.4,0-24.3,10.7-24.6,24
		c-0.3,13.6,10.5,24.8,24,25.1c13.6,0.3,24.8-10.5,25.1-24c0.3-13.6-10.5-24.8-24-25.1C386.5,359.85,386.3,359.85,386.1,359.85z"/>
</g>
<g>
</g>
<g>
</g>
<g>
</g>
<g>
</g>
<g>
</g>
<g>
</g>
<g>
</g>
<g>
</g>
<g>
</g>
<g>
</g>
<g>
</g>
<g>
</g>
<g>
</g>
<g>
</g>
<g>
</g>
</svg>
