<?xml version="1.0" encoding="UTF-8" standalone="no"?><!DOCTYPE svg PUBLIC "-//W3C//DTD SVG 1.1//EN" "http://www.w3.org/Graphics/SVG/1.1/DTD/svg11.dtd"><svg width="100%" height="100%" viewBox="0 0 1079 1079" version="1.1" xmlns="http://www.w3.org/2000/svg" xmlns:xlink="http://www.w3.org/1999/xlink" xml:space="preserve" xmlns:serif="http://www.serif.com/" style="fill-rule:evenodd;clip-rule:evenodd;stroke-linecap:round;stroke-linejoin:round;stroke-miterlimit:1.5;"><g><circle cx="539.167" cy="539.167" r="525" style="fill:#c0714c;stroke:#fff;stroke-width:28.33px;"/><g><g><g><path d="M209.292,464.555c8.475,-1.304 14.297,-9.244 12.993,-17.719c-1.304,-8.475 -9.244,-14.297 -17.719,-12.993c-8.475,1.304 -14.297,9.244 -12.992,17.719c1.304,8.475 9.243,14.297 17.718,12.993l0,-0Zm-1.575,-10.237c-2.825,0.434 -5.472,-1.506 -5.906,-4.331c-0.435,-2.825 1.506,-5.472 4.331,-5.907c2.825,-0.434 5.471,1.506 5.906,4.331c0.435,2.825 -1.506,5.472 -4.331,5.907l-0,-0Z" style="fill:none;"/><path d="M235.278,464.555c8.475,1.304 16.415,-4.518 17.719,-12.993c1.304,-8.475 -4.518,-16.415 -12.993,-17.719c-8.475,-1.304 -16.415,4.518 -17.719,12.993c-1.304,8.475 4.518,16.415 12.993,17.719l0,-0Zm1.575,-10.237c-2.825,-0.435 -4.765,-3.082 -4.331,-5.907c0.435,-2.825 3.082,-4.765 5.907,-4.331c2.825,0.435 4.765,3.082 4.331,5.907c-0.435,2.825 -3.082,4.765 -5.907,4.331l0,-0Z" style="fill:none;"/><path d="M195.128,445.837c-36.389,11.526 -62.794,45.589 -62.794,85.771c0,49.645 40.306,89.951 89.951,89.951c49.645,-0 89.951,-40.306 89.951,-89.951c-0,-40.182 -26.405,-74.245 -62.794,-85.771c-2.725,-0.863 -5.638,0.649 -6.501,3.374c-0.863,2.724 0.649,5.637 3.373,6.5c32.2,10.199 55.564,40.341 55.564,75.897c0,43.929 -35.664,79.593 -79.593,79.593c-43.928,0 -79.593,-35.664 -79.593,-79.593c0,-35.556 23.364,-65.698 55.564,-75.897c2.725,-0.863 4.236,-3.776 3.373,-6.5c-0.863,-2.725 -3.776,-4.237 -6.501,-3.374Z" style="fill:none;"/><circle cx="462.622" cy="573.275" r="47.956" style="fill:#fff;"/><circle cx="164.136" cy="532.605" r="69.074" style="fill:#fff;"/></g></g><path d="M593.191,930.815c-44.522,-3.675 -86.472,-13.385 -126.115,-27.547c-61.472,-21.96 -115.129,-55.874 -159.443,-97.853c-37.405,-35.433 -66.898,-76.917 -87.358,-122.514c-12.063,-26.884 -20.557,-55.188 -25.633,-84.573c-3.288,-19.038 -5.318,-38.502 -5.271,-58.387c-1.506,-50.809 9.231,-99.277 29.088,-143.859c20.466,-45.948 49.915,-87.871 87.556,-123.539c73.107,-69.276 173.138,-115.801 287.176,-123.475c-119.65,-8.052 -230.64,26.798 -315.427,89.868c-47.508,35.339 -86.232,79.781 -113.788,130.173c-28.186,51.545 -43.255,109.669 -45.068,170.832c0.651,48.992 9.614,96.274 27.93,139.622c27.081,64.094 71.838,120.427 129.307,163.309c52.892,39.465 115.959,67.779 185.249,81.169c42.255,8.166 86.281,10.53 131.797,6.774Z" style="fill:#fff;"/></g></g></svg>