<?xml version="1.0" encoding="UTF-8" standalone="no"?><!DOCTYPE svg PUBLIC "-//W3C//DTD SVG 1.1//EN" "http://www.w3.org/Graphics/SVG/1.1/DTD/svg11.dtd"><svg width="100%" height="100%" viewBox="0 0 3140 832" version="1.1" xmlns="http://www.w3.org/2000/svg" xmlns:xlink="http://www.w3.org/1999/xlink" xml:space="preserve" xmlns:serif="http://www.serif.com/" style="fill-rule:evenodd;clip-rule:evenodd;stroke-linecap:round;stroke-linejoin:round;stroke-miterlimit:1.5;"><g id="Horizontal---F" serif:id="Horizontal - F"><text x="994.962px" y="401.585px" style="font-family:'Bebas-Regular', 'Bebas', sans-serif;font-size:300px;fill:#fff;">D<tspan x="1117.09px 1238.37px 1304.17px 1359.94px 1471.46px 1582.99px 1700.65px 1832.26px 1954.38px 2075.67px 2197.79px 2253.55px 2360.06px 2425.86px 2481.63px 2602.91px 2725.04px 2838.8px " y="401.585px 401.585px 401.585px 401.585px 401.585px 401.585px 401.585px 401.585px 401.585px 401.585px 401.585px 401.585px 401.585px 401.585px 401.585px 401.585px 401.585px 401.585px ">r. Evandro L. Rosa</tspan></text><g transform="matrix(2.69802,0,0,2.90297,-56.0666,-1191.41)"><text x="391.554px" y="634.14px" style="font-family:'Bebas-Regular', 'Bebas', sans-serif;font-size:51.671px;fill:#fff;">Of<tspan x="434.234px 452.009px " y="634.14px 634.14px ">ta</tspan>lmologis<tspan x="643.761px 661.536px " y="634.14px 634.14px ">ta</tspan></text><text x="704.01px" y="634.14px" style="font-family:'Webdings', serif;font-size:40.189px;fill:#fff;"></text><text x="764.293px" y="634.14px" style="font-family:'Bebas-Regular', 'Bebas', sans-serif;font-size:51.671px;fill:#fff;">Especialis<tspan x="954.288px 972.063px " y="634.14px 634.14px ">ta</tspan> em Retina</text></g><g><circle cx="415.815" cy="415.815" r="415.815" style="fill:url(#_Linear1);"/><circle cx="106.538" cy="415.815" r="84.772" style="fill:#fff;"/><circle cx="430.208" cy="415.815" r="56.927" style="fill:#fff;"/><path d="M561.876,106.048c-38.922,-15.971 -81.532,-24.734 -126.172,-24.734c-184.616,0 -334.501,149.885 -334.501,334.501c0,184.616 149.885,334.501 334.501,334.501c44.917,0 87.779,-8.872 126.913,-25.026" style="fill:none;stroke:#fff;stroke-width:40.87px;"/></g></g><defs><linearGradient id="_Linear1" x1="0" y1="0" x2="1" y2="0" gradientUnits="userSpaceOnUse" gradientTransform="matrix(-831.481,11.2305,11.2305,831.481,831.481,404.585)"><stop offset="0" style="stop-color:#c0714c;stop-opacity:1"/><stop offset="0.51" style="stop-color:#dfb7a4;stop-opacity:0.53"/><stop offset="1" style="stop-color:#e8cbbe;stop-opacity:1"/></linearGradient></defs></svg>