<?xml version="1.0" encoding="UTF-8" standalone="no"?><!DOCTYPE svg PUBLIC "-//W3C//DTD SVG 1.1//EN" "http://www.w3.org/Graphics/SVG/1.1/DTD/svg11.dtd"><svg width="100%" height="100%" viewBox="0 0 3140 832" version="1.1" xmlns="http://www.w3.org/2000/svg" xmlns:xlink="http://www.w3.org/1999/xlink" xml:space="preserve" xmlns:serif="http://www.serif.com/" style="fill-rule:evenodd;clip-rule:evenodd;stroke-linecap:round;stroke-linejoin:round;stroke-miterlimit:1.5;"><g id="Horizontal---F" serif:id="Horizontal - F"><path d="M1011.13,191.585l46.284,-0c14.127,-0 25.372,4.55 33.737,13.65c8.365,9.1 12.547,21.25 12.547,36.45l-0,109.8c-0,15.2 -4.182,27.35 -12.547,36.45c-8.365,9.1 -19.61,13.65 -33.737,13.65l-46.284,-0l-0,-210Zm44.89,180c5.762,-0 10.223,-1.7 13.383,-5.1c3.16,-3.4 4.74,-8.2 4.74,-14.4l0,-111c0,-6.2 -1.58,-11 -4.74,-14.4c-3.16,-3.4 -7.621,-5.1 -13.383,-5.1l-15.335,-0l-0,150l15.335,-0Z" style="fill:#fff;fill-rule:nonzero;"/><path d="M1199.62,401.585l-21.469,-86.7l-15.335,-0l-0,86.7l-29.555,-0l-0,-210l46.284,-0c14.127,-0 25.372,4.55 33.737,13.65c8.365,9.1 12.547,21.25 12.547,36.45l-0,23.1c-0,9.6 -1.766,18.1 -5.298,25.5c-3.531,7.4 -8.55,13.2 -15.056,17.4l24.815,93.9l-30.67,-0Zm-36.804,-116.7l15.335,-0c5.762,-0 10.223,-1.7 13.383,-5.1c3.16,-3.4 4.74,-8.2 4.74,-14.4l0,-24.3c0,-6.2 -1.58,-11 -4.74,-14.4c-3.16,-3.4 -7.621,-5.1 -13.383,-5.1l-15.335,-0l-0,63.3Z" style="fill:#fff;fill-rule:nonzero;"/><rect x="1256.5" y="370.085" width="29.555" height="31.5" style="fill:#fff;fill-rule:nonzero;"/><path d="M1376.11,191.585l83.924,-0l0,30l-54.369,-0l-0,58.5l43.217,-0l-0,30l-43.217,-0l-0,61.5l54.369,-0l0,30l-83.924,-0l-0,-210Z" style="fill:#fff;fill-rule:nonzero;"/><path d="M1582.43,191.585l-32.343,210l-39.592,-0l-32.343,-210l30.112,-0l22.306,165l22.305,-165l29.555,-0Z" style="fill:#fff;fill-rule:nonzero;"/><path d="M1657.44,355.085l-31.786,-0l-6.413,46.5l-29.555,-0l32.344,-210l39.592,-0l32.343,210l-30.113,-0l-6.412,-46.5Zm-3.904,-30.6l-11.989,-87.9l-11.989,87.9l23.978,-0Z" style="fill:#fff;fill-rule:nonzero;"/><path d="M1716.83,191.585l32.622,-0l37.641,141l-0,-141l28.997,-0l-0,210l-31.228,-0l-39.035,-134.4l0,134.4l-28.997,-0l0,-210Z" style="fill:#fff;fill-rule:nonzero;"/><path d="M1848.43,191.585l46.284,-0c14.127,-0 25.373,4.55 33.737,13.65c8.365,9.1 12.547,21.25 12.547,36.45l0,109.8c0,15.2 -4.182,27.35 -12.547,36.45c-8.364,9.1 -19.61,13.65 -33.737,13.65l-46.284,-0l0,-210Zm44.89,180c5.762,-0 10.223,-1.7 13.383,-5.1c3.16,-3.4 4.74,-8.2 4.74,-14.4l0,-111c0,-6.2 -1.58,-11 -4.74,-14.4c-3.16,-3.4 -7.621,-5.1 -13.383,-5.1l-15.335,-0l-0,150l15.335,-0Z" style="fill:#fff;fill-rule:nonzero;"/><path d="M2036.91,401.585l-21.469,-86.7l-15.335,-0l-0,86.7l-29.555,-0l0,-210l46.284,-0c14.127,-0 25.373,4.55 33.737,13.65c8.365,9.1 12.547,21.25 12.547,36.45l0,23.1c0,9.6 -1.766,18.1 -5.297,25.5c-3.532,7.4 -8.551,13.2 -15.057,17.4l24.815,93.9l-30.67,-0Zm-36.804,-116.7l15.335,-0c5.762,-0 10.223,-1.7 13.383,-5.1c3.16,-3.4 4.74,-8.2 4.74,-14.4l0,-24.3c0,-6.2 -1.58,-11 -4.74,-14.4c-3.16,-3.4 -7.621,-5.1 -13.383,-5.1l-15.335,-0l-0,63.3Z" style="fill:#fff;fill-rule:nonzero;"/><path d="M2136.73,404.585c-14.127,-0 -25.559,-4.65 -34.295,-13.95c-8.737,-9.3 -13.105,-21.55 -13.105,-36.75l0,-114.6c0,-15.2 4.368,-27.45 13.105,-36.75c8.736,-9.3 20.168,-13.95 34.295,-13.95c14.126,-0 25.558,4.65 34.294,13.95c8.737,9.3 13.105,21.55 13.105,36.75l-0,114.6c-0,15.2 -4.368,27.45 -13.105,36.75c-8.736,9.3 -20.168,13.95 -34.294,13.95Zm-0,-30c5.576,-0 9.944,-1.8 13.104,-5.4c3.16,-3.6 4.74,-8.7 4.74,-15.3l-0,-114.6c-0,-6.6 -1.58,-11.7 -4.74,-15.3c-3.16,-3.6 -7.528,-5.4 -13.104,-5.4c-5.577,-0 -9.945,1.8 -13.105,5.4c-3.16,3.6 -4.74,8.7 -4.74,15.3l0,114.6c0,6.6 1.58,11.7 4.74,15.3c3.16,3.6 7.528,5.4 13.105,5.4Z" style="fill:#fff;fill-rule:nonzero;"/><path d="M2269.72,191.585l29.555,-0l0,180l52.697,-0l0,30l-82.252,-0l0,-210Z" style="fill:#fff;fill-rule:nonzero;"/><rect x="2378.19" y="370.085" width="29.555" height="31.5" style="fill:#fff;fill-rule:nonzero;"/><path d="M2564.16,401.585l-21.469,-86.7l-15.335,-0l-0,86.7l-29.555,-0l-0,-210l46.284,-0c14.127,-0 25.373,4.55 33.737,13.65c8.365,9.1 12.547,21.25 12.547,36.45l-0,23.1c-0,9.6 -1.766,18.1 -5.298,25.5c-3.531,7.4 -8.55,13.2 -15.056,17.4l24.815,93.9l-30.67,-0Zm-36.804,-116.7l15.335,-0c5.762,-0 10.223,-1.7 13.383,-5.1c3.16,-3.4 4.74,-8.2 4.74,-14.4l0,-24.3c0,-6.2 -1.58,-11 -4.74,-14.4c-3.16,-3.4 -7.621,-5.1 -13.383,-5.1l-15.335,-0l-0,63.3Z" style="fill:#fff;fill-rule:nonzero;"/><path d="M2663.98,404.585c-14.126,-0 -25.558,-4.65 -34.294,-13.95c-8.737,-9.3 -13.105,-21.55 -13.105,-36.75l0,-114.6c0,-15.2 4.368,-27.45 13.105,-36.75c8.736,-9.3 20.168,-13.95 34.294,-13.95c14.127,-0 25.559,4.65 34.295,13.95c8.737,9.3 13.105,21.55 13.105,36.75l-0,114.6c-0,15.2 -4.368,27.45 -13.105,36.75c-8.736,9.3 -20.168,13.95 -34.295,13.95Zm0,-30c5.577,-0 9.945,-1.8 13.105,-5.4c3.16,-3.6 4.74,-8.7 4.74,-15.3l-0,-114.6c-0,-6.6 -1.58,-11.7 -4.74,-15.3c-3.16,-3.6 -7.528,-5.4 -13.105,-5.4c-5.576,-0 -9.944,1.8 -13.104,5.4c-3.16,3.6 -4.74,8.7 -4.74,15.3l-0,114.6c-0,6.6 1.58,11.7 4.74,15.3c3.16,3.6 7.528,5.4 13.104,5.4Z" style="fill:#fff;fill-rule:nonzero;"/><path d="M2782.2,404.585c-9.294,-0 -17.566,-2.2 -24.815,-6.6c-7.249,-4.4 -12.872,-10.5 -16.869,-18.3c-3.996,-7.8 -5.994,-16.7 -5.994,-26.7l-0,-7.5l28.439,-3.3l0,7.8c0,7.6 1.673,13.6 5.019,18c3.346,4.4 7.993,6.6 13.941,6.6c5.762,-0 10.363,-1.8 13.802,-5.4c3.438,-3.6 5.158,-8.5 5.158,-14.7c-0,-6.8 -1.813,-13.3 -5.437,-19.5c-3.625,-6.2 -10.828,-14.8 -21.609,-25.8c-14.498,-14.8 -24.396,-27.1 -29.694,-36.9c-5.298,-9.8 -7.946,-20.5 -7.946,-32.1c-0,-15.8 3.996,-28.35 11.989,-37.65c7.993,-9.3 18.96,-13.95 32.901,-13.95c13.941,-0 24.907,4.7 32.9,14.1c7.993,9.4 11.99,22 11.99,37.8l-0,5.4l-28.44,3.3l-0,-6c-0,-8 -1.394,-14.1 -4.182,-18.3c-2.789,-4.2 -6.785,-6.3 -11.99,-6.3c-5.204,-0 -9.201,1.7 -11.989,5.1c-2.788,3.4 -4.182,8.4 -4.182,15c-0,6.6 1.859,12.95 5.576,19.05c3.718,6.1 10.874,14.85 21.469,26.25c14.499,15.6 24.397,28.15 29.695,37.65c5.297,9.5 7.946,19.95 7.946,31.35c0,10 -1.998,18.9 -5.995,26.7c-3.996,7.8 -9.619,13.9 -16.868,18.3c-7.249,4.4 -15.521,6.6 -24.815,6.6Z" style="fill:#fff;fill-rule:nonzero;"/><path d="M2913.24,355.085l-31.785,-0l-6.413,46.5l-29.555,-0l32.343,-210l39.592,-0l32.343,210l-30.112,-0l-6.413,-46.5Zm-3.903,-30.6l-11.99,-87.9l-11.989,87.9l23.979,-0Z" style="fill:#fff;fill-rule:nonzero;"/><g transform="matrix(2.69802,0,0,2.90297,-56.0666,-1191.41)"><g transform="matrix(51.6712,0,0,51.6712,391.554,634.14)"><path d="M0.219,0.01c-0.051,-0 -0.092,-0.016 -0.123,-0.047c-0.031,-0.031 -0.047,-0.071 -0.047,-0.122l0,-0.382c0,-0.051 0.016,-0.091 0.047,-0.122c0.031,-0.031 0.072,-0.047 0.123,-0.047c0.051,0 0.092,0.016 0.123,0.047c0.031,0.031 0.047,0.071 0.047,0.122l0,0.382c0,0.051 -0.016,0.092 -0.047,0.123c-0.031,0.031 -0.072,0.046 -0.123,0.046Zm0,-0.1c0.02,0 0.036,-0.006 0.047,-0.018c0.011,-0.012 0.017,-0.029 0.017,-0.051l0,-0.382c0,-0.022 -0.006,-0.039 -0.017,-0.051c-0.011,-0.012 -0.027,-0.018 -0.047,-0.018c-0.02,0 -0.036,0.006 -0.047,0.018c-0.011,0.012 -0.017,0.029 -0.017,0.051l0,0.382c0,0.022 0.006,0.039 0.017,0.051c0.011,0.012 0.027,0.018 0.047,0.018Z" style="fill:#fff;fill-rule:nonzero;"/></g><g transform="matrix(51.6712,0,0,51.6712,414.186,634.14)"><path d="M0.058,-0.7l0.296,0l0,0.1l-0.19,0l0,0.205l0.15,0l0,0.1l-0.15,0l0,0.295l-0.106,0l0,-0.7Z" style="fill:#fff;fill-rule:nonzero;"/></g><g transform="matrix(51.6712,0,0,51.6712,434.234,634.14)"><path d="M0.024,-0.7l0.338,0l-0,0.1l-0.116,0l-0,0.6l-0.106,0l-0,-0.6l-0.116,0l-0,-0.1Z" style="fill:#fff;fill-rule:nonzero;"/></g><g transform="matrix(51.6712,0,0,51.6712,452.009,634.14)"><path d="M0.267,-0.155l-0.114,0l-0.023,0.155l-0.106,-0l0.116,-0.7l0.142,0l0.116,0.7l-0.108,-0l-0.023,-0.155Zm-0.014,-0.102l-0.043,-0.293l-0.043,0.293l0.086,0Z" style="fill:#fff;fill-rule:nonzero;"/></g><g transform="matrix(51.6712,0,0,51.6712,473.815,634.14)"><path d="M0.058,-0.7l0.106,0l0,0.6l0.189,0l0,0.1l-0.295,0l0,-0.7Z" style="fill:#fff;fill-rule:nonzero;"/></g><g transform="matrix(51.6712,0,0,51.6712,493.295,634.14)"><path d="M0.54,-0.7l0,0.7l-0.106,-0l-0,-0.48l-0.099,0.48l-0.074,-0l-0.099,-0.48l-0,0.48l-0.104,-0l-0,-0.7l0.15,0l0.092,0.447l0.088,-0.447l0.152,0Z" style="fill:#fff;fill-rule:nonzero;"/></g><g transform="matrix(51.6712,0,0,51.6712,524.194,634.14)"><path d="M0.219,0.01c-0.051,-0 -0.092,-0.016 -0.123,-0.047c-0.031,-0.031 -0.047,-0.071 -0.047,-0.122l0,-0.382c0,-0.051 0.016,-0.091 0.047,-0.122c0.031,-0.031 0.072,-0.047 0.123,-0.047c0.051,0 0.092,0.016 0.123,0.047c0.031,0.031 0.047,0.071 0.047,0.122l0,0.382c0,0.051 -0.016,0.092 -0.047,0.123c-0.031,0.031 -0.072,0.046 -0.123,0.046Zm0,-0.1c0.02,0 0.036,-0.006 0.047,-0.018c0.011,-0.012 0.017,-0.029 0.017,-0.051l0,-0.382c0,-0.022 -0.006,-0.039 -0.017,-0.051c-0.011,-0.012 -0.027,-0.018 -0.047,-0.018c-0.02,0 -0.036,0.006 -0.047,0.018c-0.011,0.012 -0.017,0.029 -0.017,0.051l0,0.382c0,0.022 0.006,0.039 0.017,0.051c0.011,0.012 0.027,0.018 0.047,0.018Z" style="fill:#fff;fill-rule:nonzero;"/></g><g transform="matrix(51.6712,0,0,51.6712,546.826,634.14)"><path d="M0.058,-0.7l0.106,0l0,0.6l0.189,0l0,0.1l-0.295,0l0,-0.7Z" style="fill:#fff;fill-rule:nonzero;"/></g><g transform="matrix(51.6712,0,0,51.6712,566.306,634.14)"><path d="M0.219,0.01c-0.051,-0 -0.092,-0.016 -0.123,-0.047c-0.031,-0.031 -0.047,-0.071 -0.047,-0.122l0,-0.382c0,-0.051 0.016,-0.091 0.047,-0.122c0.031,-0.031 0.072,-0.047 0.123,-0.047c0.051,0 0.092,0.016 0.123,0.047c0.031,0.031 0.047,0.071 0.047,0.122l0,0.382c0,0.051 -0.016,0.092 -0.047,0.123c-0.031,0.031 -0.072,0.046 -0.123,0.046Zm0,-0.1c0.02,0 0.036,-0.006 0.047,-0.018c0.011,-0.012 0.017,-0.029 0.017,-0.051l0,-0.382c0,-0.022 -0.006,-0.039 -0.017,-0.051c-0.011,-0.012 -0.027,-0.018 -0.047,-0.018c-0.02,0 -0.036,0.006 -0.047,0.018c-0.011,0.012 -0.017,0.029 -0.017,0.051l0,0.382c0,0.022 0.006,0.039 0.017,0.051c0.011,0.012 0.027,0.018 0.047,0.018Z" style="fill:#fff;fill-rule:nonzero;"/></g><g transform="matrix(51.6712,0,0,51.6712,588.938,634.14)"><path d="M0.283,-0.482l-0,-0.059c-0,-0.022 -0.006,-0.039 -0.017,-0.051c-0.011,-0.012 -0.027,-0.018 -0.047,-0.018c-0.02,0 -0.036,0.006 -0.047,0.018c-0.011,0.012 -0.017,0.029 -0.017,0.051l-0,0.382c-0,0.022 0.006,0.039 0.017,0.051c0.011,0.012 0.027,0.018 0.047,0.018c0.02,0 0.036,-0.006 0.047,-0.018c0.011,-0.012 0.017,-0.029 0.017,-0.051l-0,-0.124l-0.064,0l-0,-0.1l0.17,0l0,0.224c0,0.051 -0.016,0.092 -0.047,0.123c-0.031,0.031 -0.072,0.046 -0.123,0.046c-0.051,-0 -0.092,-0.015 -0.123,-0.046c-0.031,-0.032 -0.047,-0.072 -0.047,-0.123l-0,-0.382c-0,-0.051 0.016,-0.091 0.047,-0.122c0.031,-0.031 0.072,-0.047 0.123,-0.047c0.051,0 0.092,0.016 0.123,0.047c0.031,0.031 0.047,0.071 0.047,0.122l0,0.059l-0.106,0Z" style="fill:#fff;fill-rule:nonzero;"/></g><g transform="matrix(51.6712,0,0,51.6712,611.363,634.14)"><rect x="0.058" y="-0.7" width="0.106" height="0.7" style="fill:#fff;fill-rule:nonzero;"/></g><g transform="matrix(51.6712,0,0,51.6712,622.834,634.14)"><path d="M0.205,0.01c-0.033,-0 -0.063,-0.007 -0.089,-0.022c-0.026,-0.015 -0.046,-0.035 -0.061,-0.061c-0.014,-0.026 -0.021,-0.056 -0.021,-0.089l-0,-0.025l0.102,-0.011l0,0.026c0,0.025 0.006,0.045 0.018,0.06c0.012,0.015 0.029,0.022 0.05,0.022c0.021,0 0.037,-0.006 0.049,-0.018c0.013,-0.012 0.019,-0.028 0.019,-0.049c0,-0.023 -0.007,-0.044 -0.02,-0.065c-0.013,-0.021 -0.038,-0.049 -0.077,-0.086c-0.052,-0.049 -0.087,-0.09 -0.106,-0.123c-0.019,-0.033 -0.029,-0.068 -0.029,-0.107c0,-0.053 0.014,-0.094 0.043,-0.125c0.029,-0.031 0.068,-0.047 0.118,-0.047c0.05,0 0.089,0.016 0.118,0.047c0.029,0.031 0.043,0.073 0.043,0.126l0,0.018l-0.102,0.011l0,-0.02c0,-0.027 -0.005,-0.047 -0.015,-0.061c-0.01,-0.014 -0.024,-0.021 -0.043,-0.021c-0.019,0 -0.033,0.006 -0.043,0.017c-0.01,0.011 -0.015,0.028 -0.015,0.05c0,0.022 0.007,0.043 0.02,0.063c0.013,0.021 0.039,0.05 0.077,0.088c0.052,0.052 0.088,0.094 0.107,0.125c0.019,0.032 0.028,0.067 0.028,0.105c0,0.033 -0.007,0.063 -0.021,0.089c-0.015,0.026 -0.035,0.046 -0.061,0.061c-0.026,0.015 -0.056,0.022 -0.089,0.022Z" style="fill:#fff;fill-rule:nonzero;"/></g><g transform="matrix(51.6712,0,0,51.6712,643.761,634.14)"><path d="M0.024,-0.7l0.338,0l-0,0.1l-0.116,0l-0,0.6l-0.106,0l-0,-0.6l-0.116,0l-0,-0.1Z" style="fill:#fff;fill-rule:nonzero;"/></g><g transform="matrix(51.6712,0,0,51.6712,661.536,634.14)"><path d="M0.267,-0.155l-0.114,0l-0.023,0.155l-0.106,-0l0.116,-0.7l0.142,0l0.116,0.7l-0.108,-0l-0.023,-0.155Zm-0.014,-0.102l-0.043,-0.293l-0.043,0.293l0.086,0Z" style="fill:#fff;fill-rule:nonzero;"/></g><g transform="matrix(40.1887,0,0,40.1887,704.01,634.14)"><path d="M0.781,-0.3c0,0.078 -0.027,0.144 -0.082,0.199c-0.055,0.055 -0.122,0.082 -0.199,0.082c-0.077,0 -0.144,-0.027 -0.199,-0.082c-0.055,-0.055 -0.082,-0.121 -0.082,-0.199c-0,-0.077 0.027,-0.144 0.082,-0.199c0.055,-0.055 0.122,-0.082 0.199,-0.082c0.077,-0 0.144,0.027 0.199,0.082c0.055,0.055 0.082,0.122 0.082,0.199Z" style="fill:#fff;fill-rule:nonzero;"/></g><g transform="matrix(51.6712,0,0,51.6712,764.293,634.14)"><path d="M0.058,-0.7l0.301,0l0,0.1l-0.195,0l0,0.195l0.155,0l0,0.1l-0.155,0l0,0.205l0.195,0l0,0.1l-0.301,0l0,-0.7Z" style="fill:#fff;fill-rule:nonzero;"/></g><g transform="matrix(51.6712,0,0,51.6712,784.445,634.14)"><path d="M0.205,0.01c-0.033,-0 -0.063,-0.007 -0.089,-0.022c-0.026,-0.015 -0.046,-0.035 -0.061,-0.061c-0.014,-0.026 -0.021,-0.056 -0.021,-0.089l-0,-0.025l0.102,-0.011l0,0.026c0,0.025 0.006,0.045 0.018,0.06c0.012,0.015 0.029,0.022 0.05,0.022c0.021,0 0.037,-0.006 0.049,-0.018c0.013,-0.012 0.019,-0.028 0.019,-0.049c0,-0.023 -0.007,-0.044 -0.02,-0.065c-0.013,-0.021 -0.038,-0.049 -0.077,-0.086c-0.052,-0.049 -0.087,-0.09 -0.106,-0.123c-0.019,-0.033 -0.029,-0.068 -0.029,-0.107c0,-0.053 0.014,-0.094 0.043,-0.125c0.029,-0.031 0.068,-0.047 0.118,-0.047c0.05,0 0.089,0.016 0.118,0.047c0.029,0.031 0.043,0.073 0.043,0.126l0,0.018l-0.102,0.011l0,-0.02c0,-0.027 -0.005,-0.047 -0.015,-0.061c-0.01,-0.014 -0.024,-0.021 -0.043,-0.021c-0.019,0 -0.033,0.006 -0.043,0.017c-0.01,0.011 -0.015,0.028 -0.015,0.05c0,0.022 0.007,0.043 0.02,0.063c0.013,0.021 0.039,0.05 0.077,0.088c0.052,0.052 0.088,0.094 0.107,0.125c0.019,0.032 0.028,0.067 0.028,0.105c0,0.033 -0.007,0.063 -0.021,0.089c-0.015,0.026 -0.035,0.046 -0.061,0.061c-0.026,0.015 -0.056,0.022 -0.089,0.022Z" style="fill:#fff;fill-rule:nonzero;"/></g><g transform="matrix(51.6712,0,0,51.6712,805.527,634.14)"><path d="M0.058,-0.7l0.166,0c0.051,0 0.091,0.015 0.121,0.046c0.03,0.03 0.045,0.07 0.045,0.121l0,0.082c0,0.051 -0.015,0.091 -0.045,0.122c-0.03,0.03 -0.07,0.045 -0.121,0.045l-0.06,0l0,0.284l-0.106,-0l0,-0.7Zm0.161,0.316c0.021,0 0.037,-0.006 0.048,-0.017c0.011,-0.011 0.017,-0.027 0.017,-0.048l0,-0.086c0,-0.021 -0.006,-0.037 -0.017,-0.048c-0.011,-0.011 -0.027,-0.017 -0.048,-0.017l-0.055,0l0,0.216l0.055,0Z" style="fill:#fff;fill-rule:nonzero;"/></g><g transform="matrix(51.6712,0,0,51.6712,827.28,634.14)"><path d="M0.058,-0.7l0.301,0l0,0.1l-0.195,0l0,0.195l0.155,0l0,0.1l-0.155,0l0,0.205l0.195,0l0,0.1l-0.301,0l0,-0.7Z" style="fill:#fff;fill-rule:nonzero;"/></g><g transform="matrix(51.6712,0,0,51.6712,847.432,634.14)"><path d="M0.215,0.01c-0.049,-0 -0.089,-0.015 -0.12,-0.046c-0.031,-0.031 -0.046,-0.071 -0.046,-0.12l0,-0.388c0,-0.049 0.015,-0.089 0.046,-0.12c0.031,-0.031 0.071,-0.046 0.12,-0.046c0.049,0 0.089,0.015 0.12,0.046c0.031,0.031 0.046,0.071 0.046,0.12l0,0.082l-0.104,0l0,-0.082c0,-0.02 -0.006,-0.036 -0.017,-0.048c-0.011,-0.012 -0.026,-0.018 -0.044,-0.018c-0.018,0 -0.033,0.006 -0.044,0.018c-0.011,0.012 -0.017,0.028 -0.017,0.048l0,0.388c0,0.02 0.006,0.036 0.017,0.048c0.011,0.012 0.026,0.018 0.044,0.018c0.018,0 0.033,-0.006 0.044,-0.018c0.011,-0.012 0.017,-0.028 0.017,-0.048l0,-0.1l0.104,0l0,0.1c0,0.049 -0.015,0.089 -0.046,0.12c-0.031,0.031 -0.071,0.046 -0.12,0.046Z" style="fill:#fff;fill-rule:nonzero;"/></g><g transform="matrix(51.6712,0,0,51.6712,869.134,634.14)"><rect x="0.058" y="-0.7" width="0.106" height="0.7" style="fill:#fff;fill-rule:nonzero;"/></g><g transform="matrix(51.6712,0,0,51.6712,880.605,634.14)"><path d="M0.267,-0.155l-0.114,0l-0.023,0.155l-0.106,-0l0.116,-0.7l0.142,0l0.116,0.7l-0.108,-0l-0.023,-0.155Zm-0.014,-0.102l-0.043,-0.293l-0.043,0.293l0.086,0Z" style="fill:#fff;fill-rule:nonzero;"/></g><g transform="matrix(51.6712,0,0,51.6712,902.41,634.14)"><path d="M0.058,-0.7l0.106,0l0,0.6l0.189,0l0,0.1l-0.295,0l0,-0.7Z" style="fill:#fff;fill-rule:nonzero;"/></g><g transform="matrix(51.6712,0,0,51.6712,921.89,634.14)"><rect x="0.058" y="-0.7" width="0.106" height="0.7" style="fill:#fff;fill-rule:nonzero;"/></g><g transform="matrix(51.6712,0,0,51.6712,933.361,634.14)"><path d="M0.205,0.01c-0.033,-0 -0.063,-0.007 -0.089,-0.022c-0.026,-0.015 -0.046,-0.035 -0.061,-0.061c-0.014,-0.026 -0.021,-0.056 -0.021,-0.089l-0,-0.025l0.102,-0.011l0,0.026c0,0.025 0.006,0.045 0.018,0.06c0.012,0.015 0.029,0.022 0.05,0.022c0.021,0 0.037,-0.006 0.049,-0.018c0.013,-0.012 0.019,-0.028 0.019,-0.049c0,-0.023 -0.007,-0.044 -0.02,-0.065c-0.013,-0.021 -0.038,-0.049 -0.077,-0.086c-0.052,-0.049 -0.087,-0.09 -0.106,-0.123c-0.019,-0.033 -0.029,-0.068 -0.029,-0.107c0,-0.053 0.014,-0.094 0.043,-0.125c0.029,-0.031 0.068,-0.047 0.118,-0.047c0.05,0 0.089,0.016 0.118,0.047c0.029,0.031 0.043,0.073 0.043,0.126l0,0.018l-0.102,0.011l0,-0.02c0,-0.027 -0.005,-0.047 -0.015,-0.061c-0.01,-0.014 -0.024,-0.021 -0.043,-0.021c-0.019,0 -0.033,0.006 -0.043,0.017c-0.01,0.011 -0.015,0.028 -0.015,0.05c0,0.022 0.007,0.043 0.02,0.063c0.013,0.021 0.039,0.05 0.077,0.088c0.052,0.052 0.088,0.094 0.107,0.125c0.019,0.032 0.028,0.067 0.028,0.105c0,0.033 -0.007,0.063 -0.021,0.089c-0.015,0.026 -0.035,0.046 -0.061,0.061c-0.026,0.015 -0.056,0.022 -0.089,0.022Z" style="fill:#fff;fill-rule:nonzero;"/></g><g transform="matrix(51.6712,0,0,51.6712,954.288,634.14)"><path d="M0.024,-0.7l0.338,0l-0,0.1l-0.116,0l-0,0.6l-0.106,0l-0,-0.6l-0.116,0l-0,-0.1Z" style="fill:#fff;fill-rule:nonzero;"/></g><g transform="matrix(51.6712,0,0,51.6712,972.063,634.14)"><path d="M0.267,-0.155l-0.114,0l-0.023,0.155l-0.106,-0l0.116,-0.7l0.142,0l0.116,0.7l-0.108,-0l-0.023,-0.155Zm-0.014,-0.102l-0.043,-0.293l-0.043,0.293l0.086,0Z" style="fill:#fff;fill-rule:nonzero;"/></g><g transform="matrix(51.6712,0,0,51.6712,1004.2,634.14)"><path d="M0.058,-0.7l0.301,0l0,0.1l-0.195,0l0,0.195l0.155,0l0,0.1l-0.155,0l0,0.205l0.195,0l0,0.1l-0.301,0l0,-0.7Z" style="fill:#fff;fill-rule:nonzero;"/></g><g transform="matrix(51.6712,0,0,51.6712,1024.35,634.14)"><path d="M0.54,-0.7l0,0.7l-0.106,-0l-0,-0.48l-0.099,0.48l-0.074,-0l-0.099,-0.48l-0,0.48l-0.104,-0l-0,-0.7l0.15,0l0.092,0.447l0.088,-0.447l0.152,0Z" style="fill:#fff;fill-rule:nonzero;"/></g><g transform="matrix(51.6712,0,0,51.6712,1065.59,634.14)"><path d="M0.296,-0l-0.077,-0.289l-0.055,0l0,0.289l-0.106,-0l0,-0.7l0.166,0c0.051,0 0.091,0.015 0.121,0.046c0.03,0.03 0.045,0.07 0.045,0.121l0,0.077c0,0.032 -0.006,0.06 -0.019,0.085c-0.013,0.025 -0.031,0.044 -0.054,0.058l0.089,0.313l-0.11,-0Zm-0.132,-0.389l0.055,0c0.021,0 0.037,-0.006 0.048,-0.017c0.011,-0.011 0.017,-0.027 0.017,-0.048l0,-0.081c0,-0.021 -0.006,-0.037 -0.017,-0.048c-0.011,-0.011 -0.027,-0.017 -0.048,-0.017l-0.055,0l0,0.211Z" style="fill:#fff;fill-rule:nonzero;"/></g><g transform="matrix(51.6712,0,0,51.6712,1088.06,634.14)"><path d="M0.058,-0.7l0.301,0l0,0.1l-0.195,0l0,0.195l0.155,0l0,0.1l-0.155,0l0,0.205l0.195,0l0,0.1l-0.301,0l0,-0.7Z" style="fill:#fff;fill-rule:nonzero;"/></g><g transform="matrix(51.6712,0,0,51.6712,1108.22,634.14)"><path d="M0.024,-0.7l0.338,0l-0,0.1l-0.116,0l-0,0.6l-0.106,0l-0,-0.6l-0.116,0l-0,-0.1Z" style="fill:#fff;fill-rule:nonzero;"/></g><g transform="matrix(51.6712,0,0,51.6712,1128.16,634.14)"><rect x="0.058" y="-0.7" width="0.106" height="0.7" style="fill:#fff;fill-rule:nonzero;"/></g><g transform="matrix(51.6712,0,0,51.6712,1139.63,634.14)"><path d="M0.058,-0.7l0.117,0l0.135,0.47l-0,-0.47l0.104,0l-0,0.7l-0.112,-0l-0.14,-0.448l-0,0.448l-0.104,-0l-0,-0.7Z" style="fill:#fff;fill-rule:nonzero;"/></g><g transform="matrix(51.6712,0,0,51.6712,1164.02,634.14)"><path d="M0.267,-0.155l-0.114,0l-0.023,0.155l-0.106,-0l0.116,-0.7l0.142,0l0.116,0.7l-0.108,-0l-0.023,-0.155Zm-0.014,-0.102l-0.043,-0.293l-0.043,0.293l0.086,0Z" style="fill:#fff;fill-rule:nonzero;"/></g></g><g><circle cx="415.815" cy="415.815" r="415.815" style="fill:url(#_Linear1);"/><circle cx="106.538" cy="415.815" r="84.772" style="fill:#fff;"/><circle cx="430.208" cy="415.815" r="56.927" style="fill:#fff;"/><path d="M561.876,106.048c-38.922,-15.971 -81.532,-24.734 -126.172,-24.734c-184.616,0 -334.501,149.885 -334.501,334.501c0,184.616 149.885,334.501 334.501,334.501c44.917,0 87.779,-8.872 126.913,-25.026" style="fill:none;stroke:#fff;stroke-width:40.87px;"/></g></g><defs><linearGradient id="_Linear1" x1="0" y1="0" x2="1" y2="0" gradientUnits="userSpaceOnUse" gradientTransform="matrix(-831.481,11.2305,11.2305,831.481,831.481,404.585)"><stop offset="0" style="stop-color:#c0714c;stop-opacity:1"/><stop offset="0.51" style="stop-color:#dfb7a4;stop-opacity:0.53"/><stop offset="1" style="stop-color:#e8cbbe;stop-opacity:1"/></linearGradient></defs></svg>