<?xml version="1.0" encoding="UTF-8" standalone="no"?><!DOCTYPE svg PUBLIC "-//W3C//DTD SVG 1.1//EN" "http://www.w3.org/Graphics/SVG/1.1/DTD/svg11.dtd"><svg width="100%" height="100%" viewBox="0 0 2713 1080" version="1.1" xmlns="http://www.w3.org/2000/svg" xmlns:xlink="http://www.w3.org/1999/xlink" xml:space="preserve" xmlns:serif="http://www.serif.com/" style="fill-rule:evenodd;clip-rule:evenodd;stroke-linecap:round;stroke-linejoin:round;stroke-miterlimit:1.5;"><g><g><path d="M773.472,299.04l46.284,-0c14.127,-0 25.373,4.55 33.737,13.65c8.365,9.1 12.547,21.25 12.547,36.45l0,109.8c0,15.2 -4.182,27.35 -12.547,36.45c-8.364,9.1 -19.61,13.65 -33.737,13.65l-46.284,-0l0,-210Zm44.89,180c5.762,-0 10.224,-1.7 13.384,-5.1c3.159,-3.4 4.739,-8.2 4.739,-14.4l0,-111c0,-6.2 -1.58,-11 -4.739,-14.4c-3.16,-3.4 -7.622,-5.1 -13.384,-5.1l-15.335,-0l0,150l15.335,-0Z" style="fill:#fff;fill-rule:nonzero;"/><path d="M961.954,509.04l-21.469,-86.7l-15.335,-0l0,86.7l-29.555,-0l0,-210l46.284,-0c14.127,-0 25.373,4.55 33.737,13.65c8.365,9.1 12.547,21.25 12.547,36.45l0,23.1c0,9.6 -1.766,18.1 -5.297,25.5c-3.532,7.4 -8.551,13.2 -15.057,17.4l24.815,93.9l-30.67,-0Zm-36.804,-116.7l15.335,-0c5.762,-0 10.224,-1.7 13.384,-5.1c3.159,-3.4 4.739,-8.2 4.739,-14.4l0,-24.3c0,-6.2 -1.58,-11 -4.739,-14.4c-3.16,-3.4 -7.622,-5.1 -13.384,-5.1l-15.335,-0l0,63.3Z" style="fill:#fff;fill-rule:nonzero;"/><rect x="1018.83" y="477.54" width="29.555" height="31.5" style="fill:#fff;fill-rule:nonzero;"/><path d="M1138.45,299.04l83.925,-0l-0,30l-54.37,-0l-0,58.5l43.217,-0l-0,30l-43.217,-0l-0,61.5l54.37,-0l-0,30l-83.925,-0l0,-210Z" style="fill:#fff;fill-rule:nonzero;"/><path d="M1344.77,299.04l-32.343,210l-39.593,-0l-32.343,-210l30.113,-0l22.305,165l22.306,-165l29.555,-0Z" style="fill:#fff;fill-rule:nonzero;"/><path d="M1419.78,462.54l-31.785,-0l-6.413,46.5l-29.555,-0l32.343,-210l39.592,-0l32.343,210l-30.112,-0l-6.413,-46.5Zm-3.903,-30.6l-11.99,-87.9l-11.989,87.9l23.979,-0Z" style="fill:#fff;fill-rule:nonzero;"/><path d="M1479.16,299.04l32.622,-0l37.64,141l0,-141l28.997,-0l0,210l-31.227,-0l-39.035,-134.4l-0,134.4l-28.997,-0l-0,-210Z" style="fill:#fff;fill-rule:nonzero;"/><path d="M1610.77,299.04l46.285,-0c14.126,-0 25.372,4.55 33.737,13.65c8.364,9.1 12.547,21.25 12.547,36.45l-0,109.8c-0,15.2 -4.183,27.35 -12.547,36.45c-8.365,9.1 -19.611,13.65 -33.737,13.65l-46.285,-0l0,-210Zm44.89,180c5.763,-0 10.224,-1.7 13.384,-5.1c3.16,-3.4 4.74,-8.2 4.74,-14.4l-0,-111c-0,-6.2 -1.58,-11 -4.74,-14.4c-3.16,-3.4 -7.621,-5.1 -13.384,-5.1l-15.335,-0l0,150l15.335,-0Z" style="fill:#fff;fill-rule:nonzero;"/><path d="M1799.25,509.04l-21.47,-86.7l-15.335,-0l0,86.7l-29.555,-0l0,-210l46.285,-0c14.126,-0 25.372,4.55 33.737,13.65c8.364,9.1 12.547,21.25 12.547,36.45l-0,23.1c-0,9.6 -1.766,18.1 -5.298,25.5c-3.532,7.4 -8.55,13.2 -15.056,17.4l24.815,93.9l-30.67,-0Zm-36.805,-116.7l15.335,-0c5.763,-0 10.224,-1.7 13.384,-5.1c3.16,-3.4 4.74,-8.2 4.74,-14.4l-0,-24.3c-0,-6.2 -1.58,-11 -4.74,-14.4c-3.16,-3.4 -7.621,-5.1 -13.384,-5.1l-15.335,-0l0,63.3Z" style="fill:#fff;fill-rule:nonzero;"/><path d="M1899.07,512.04c-14.127,-0 -25.559,-4.65 -34.295,-13.95c-8.736,-9.3 -13.104,-21.55 -13.104,-36.75l-0,-114.6c-0,-15.2 4.368,-27.45 13.104,-36.75c8.736,-9.3 20.168,-13.95 34.295,-13.95c14.127,-0 25.558,4.65 34.295,13.95c8.736,9.3 13.104,21.55 13.104,36.75l0,114.6c0,15.2 -4.368,27.45 -13.104,36.75c-8.737,9.3 -20.168,13.95 -34.295,13.95Zm-0,-30c5.576,-0 9.945,-1.8 13.104,-5.4c3.16,-3.6 4.74,-8.7 4.74,-15.3l0,-114.6c0,-6.6 -1.58,-11.7 -4.74,-15.3c-3.159,-3.6 -7.528,-5.4 -13.104,-5.4c-5.576,-0 -9.945,1.8 -13.105,5.4c-3.16,3.6 -4.74,8.7 -4.74,15.3l0,114.6c0,6.6 1.58,11.7 4.74,15.3c3.16,3.6 7.529,5.4 13.105,5.4Z" style="fill:#fff;fill-rule:nonzero;"/><path d="M2032.06,299.04l29.555,-0l-0,180l52.697,-0l-0,30l-82.252,-0l-0,-210Z" style="fill:#fff;fill-rule:nonzero;"/><rect x="2140.53" y="477.54" width="29.555" height="31.5" style="fill:#fff;fill-rule:nonzero;"/><path d="M2326.5,509.04l-21.469,-86.7l-15.335,-0l0,86.7l-29.555,-0l0,-210l46.284,-0c14.127,-0 25.373,4.55 33.738,13.65c8.364,9.1 12.546,21.25 12.546,36.45l0,23.1c0,9.6 -1.765,18.1 -5.297,25.5c-3.532,7.4 -8.551,13.2 -15.056,17.4l24.815,93.9l-30.671,-0Zm-36.804,-116.7l15.335,-0c5.763,-0 10.224,-1.7 13.384,-5.1c3.16,-3.4 4.74,-8.2 4.74,-14.4l-0,-24.3c-0,-6.2 -1.58,-11 -4.74,-14.4c-3.16,-3.4 -7.621,-5.1 -13.384,-5.1l-15.335,-0l0,63.3Z" style="fill:#fff;fill-rule:nonzero;"/><path d="M2426.32,512.04c-14.127,-0 -25.559,-4.65 -34.295,-13.95c-8.736,-9.3 -13.105,-21.55 -13.105,-36.75l0,-114.6c0,-15.2 4.369,-27.45 13.105,-36.75c8.736,-9.3 20.168,-13.95 34.295,-13.95c14.127,-0 25.558,4.65 34.295,13.95c8.736,9.3 13.104,21.55 13.104,36.75l0,114.6c0,15.2 -4.368,27.45 -13.104,36.75c-8.737,9.3 -20.168,13.95 -34.295,13.95Zm-0,-30c5.576,-0 9.944,-1.8 13.104,-5.4c3.16,-3.6 4.74,-8.7 4.74,-15.3l0,-114.6c0,-6.6 -1.58,-11.7 -4.74,-15.3c-3.16,-3.6 -7.528,-5.4 -13.104,-5.4c-5.577,-0 -9.945,1.8 -13.105,5.4c-3.16,3.6 -4.74,8.7 -4.74,15.3l0,114.6c0,6.6 1.58,11.7 4.74,15.3c3.16,3.6 7.528,5.4 13.105,5.4Z" style="fill:#fff;fill-rule:nonzero;"/><path d="M2544.53,512.04c-9.294,-0 -17.565,-2.2 -24.815,-6.6c-7.249,-4.4 -12.872,-10.5 -16.868,-18.3c-3.997,-7.8 -5.995,-16.7 -5.995,-26.7l0,-7.5l28.44,-3.3l-0,7.8c-0,7.6 1.673,13.6 5.018,18c3.346,4.4 7.993,6.6 13.941,6.6c5.763,-0 10.363,-1.8 13.802,-5.4c3.439,-3.6 5.158,-8.5 5.158,-14.7c0,-6.8 -1.812,-13.3 -5.437,-19.5c-3.624,-6.2 -10.827,-14.8 -21.608,-25.8c-14.499,-14.8 -24.397,-27.1 -29.695,-36.9c-5.297,-9.8 -7.946,-20.5 -7.946,-32.1c0,-15.8 3.996,-28.35 11.989,-37.65c7.993,-9.3 18.96,-13.95 32.901,-13.95c13.941,-0 24.908,4.7 32.901,14.1c7.993,9.4 11.989,22 11.989,37.8l-0,5.4l-28.44,3.3l0,-6c0,-8 -1.394,-14.1 -4.182,-18.3c-2.788,-4.2 -6.785,-6.3 -11.989,-6.3c-5.205,-0 -9.201,1.7 -11.989,5.1c-2.789,3.4 -4.183,8.4 -4.183,15c0,6.6 1.859,12.95 5.577,19.05c3.717,6.1 10.874,14.85 21.469,26.25c14.498,15.6 24.397,28.15 29.694,37.65c5.298,9.5 7.946,19.95 7.946,31.35c0,10 -1.998,18.9 -5.994,26.7c-3.997,7.8 -9.619,13.9 -16.869,18.3c-7.249,4.4 -15.521,6.6 -24.815,6.6Z" style="fill:#fff;fill-rule:nonzero;"/><path d="M2675.58,462.54l-31.786,-0l-6.413,46.5l-29.555,-0l32.343,-210l39.593,-0l32.343,210l-30.113,-0l-6.412,-46.5Zm-3.904,-30.6l-11.989,-87.9l-11.989,87.9l23.978,-0Z" style="fill:#fff;fill-rule:nonzero;"/><path d="M793.222,741.77c-7.063,0 -12.779,-2.325 -17.147,-6.975c-4.369,-4.65 -6.553,-10.775 -6.553,-18.375l0,-57.3c0,-7.6 2.184,-13.725 6.553,-18.375c4.368,-4.65 10.084,-6.975 17.147,-6.975c7.063,0 12.779,2.325 17.147,6.975c4.369,4.65 6.553,10.775 6.553,18.375l-0,57.3c-0,7.6 -2.184,13.725 -6.553,18.375c-4.368,4.65 -10.084,6.975 -17.147,6.975Zm-0,-15c2.788,0 4.972,-0.9 6.552,-2.7c1.58,-1.8 2.37,-4.35 2.37,-7.65l0,-57.3c0,-3.3 -0.79,-5.85 -2.37,-7.65c-1.58,-1.8 -3.764,-2.7 -6.552,-2.7c-2.788,0 -4.972,0.9 -6.552,2.7c-1.58,1.8 -2.37,4.35 -2.37,7.65l-0,57.3c-0,3.3 0.79,5.85 2.37,7.65c1.58,1.8 3.764,2.7 6.552,2.7Z" style="fill:#fff;fill-rule:nonzero;"/><path d="M831.838,635.27l41.266,0l-0,15l-26.488,0l-0,30.75l20.911,0l0,15l-20.911,0l-0,44.25l-14.778,0l0,-105Z" style="fill:#fff;fill-rule:nonzero;"/><path d="M881.19,635.27l47.12,0l0,15l-16.171,0l-0,90l-14.778,0l0,-90l-16.171,0l-0,-15Z" style="fill:#fff;fill-rule:nonzero;"/><path d="M963.023,717.02l-15.893,0l-3.206,23.25l-14.777,0l16.171,-105l19.796,0l16.172,105l-15.056,0l-3.207,-23.25Zm-1.952,-15.3l-5.994,-43.95l-5.995,43.95l11.989,0Z" style="fill:#fff;fill-rule:nonzero;"/><path d="M992.717,635.27l14.778,0l-0,90l26.348,0l0,15l-41.126,0l0,-105Z" style="fill:#fff;fill-rule:nonzero;"/><path d="M1112.47,635.27l0,105l-14.777,0l-0,-72l-13.802,72l-10.316,0l-13.802,-72l0,72l-14.498,0l-0,-105l20.911,0l12.826,67.05l12.268,-67.05l21.19,0Z" style="fill:#fff;fill-rule:nonzero;"/><path d="M1151.09,741.77c-7.064,0 -12.779,-2.325 -17.147,-6.975c-4.369,-4.65 -6.553,-10.775 -6.553,-18.375l0,-57.3c0,-7.6 2.184,-13.725 6.553,-18.375c4.368,-4.65 10.083,-6.975 17.147,-6.975c7.063,0 12.779,2.325 17.147,6.975c4.368,4.65 6.553,10.775 6.553,18.375l-0,57.3c-0,7.6 -2.185,13.725 -6.553,18.375c-4.368,4.65 -10.084,6.975 -17.147,6.975Zm-0,-15c2.788,0 4.972,-0.9 6.552,-2.7c1.58,-1.8 2.37,-4.35 2.37,-7.65l0,-57.3c0,-3.3 -0.79,-5.85 -2.37,-7.65c-1.58,-1.8 -3.764,-2.7 -6.552,-2.7c-2.788,0 -4.972,0.9 -6.552,2.7c-1.58,1.8 -2.37,4.35 -2.37,7.65l-0,57.3c-0,3.3 0.79,5.85 2.37,7.65c1.58,1.8 3.764,2.7 6.552,2.7Z" style="fill:#fff;fill-rule:nonzero;"/><path d="M1189.7,635.27l14.778,0l-0,90l26.348,0l0,15l-41.126,0l0,-105Z" style="fill:#fff;fill-rule:nonzero;"/><path d="M1264.71,741.77c-7.064,0 -12.779,-2.325 -17.148,-6.975c-4.368,-4.65 -6.552,-10.775 -6.552,-18.375l0,-57.3c0,-7.6 2.184,-13.725 6.552,-18.375c4.369,-4.65 10.084,-6.975 17.148,-6.975c7.063,0 12.779,2.325 17.147,6.975c4.368,4.65 6.553,10.775 6.553,18.375l-0,57.3c-0,7.6 -2.185,13.725 -6.553,18.375c-4.368,4.65 -10.084,6.975 -17.147,6.975Zm-0,-15c2.788,0 4.972,-0.9 6.552,-2.7c1.58,-1.8 2.37,-4.35 2.37,-7.65l0,-57.3c0,-3.3 -0.79,-5.85 -2.37,-7.65c-1.58,-1.8 -3.764,-2.7 -6.552,-2.7c-2.788,0 -4.972,0.9 -6.552,2.7c-1.58,1.8 -2.37,4.35 -2.37,7.65l-0,57.3c-0,3.3 0.79,5.85 2.37,7.65c1.58,1.8 3.764,2.7 6.552,2.7Z" style="fill:#fff;fill-rule:nonzero;"/><path d="M1334.69,667.97l-0,-8.85c-0,-3.3 -0.79,-5.85 -2.37,-7.65c-1.58,-1.8 -3.764,-2.7 -6.553,-2.7c-2.788,0 -4.972,0.9 -6.552,2.7c-1.58,1.8 -2.37,4.35 -2.37,7.65l0,57.3c0,3.3 0.79,5.85 2.37,7.65c1.58,1.8 3.764,2.7 6.552,2.7c2.789,0 4.973,-0.9 6.553,-2.7c1.58,-1.8 2.37,-4.35 2.37,-7.65l-0,-18.6l-8.923,0l0,-15l23.7,0l0,33.6c0,7.6 -2.184,13.725 -6.552,18.375c-4.368,4.65 -10.084,6.975 -17.148,6.975c-7.063,0 -12.779,-2.325 -17.147,-6.975c-4.368,-4.65 -6.552,-10.775 -6.552,-18.375l-0,-57.3c-0,-7.6 2.184,-13.725 6.552,-18.375c4.368,-4.65 10.084,-6.975 17.147,-6.975c7.064,0 12.78,2.325 17.148,6.975c4.368,4.65 6.552,10.775 6.552,18.375l0,8.85l-14.777,0Z" style="fill:#fff;fill-rule:nonzero;"/><rect x="1363.83" y="635.27" width="14.777" height="105" style="fill:#fff;fill-rule:nonzero;"/><path d="M1415.27,741.77c-4.647,0 -8.782,-1.1 -12.407,-3.3c-3.625,-2.2 -6.436,-5.25 -8.434,-9.15c-1.999,-3.9 -2.998,-8.35 -2.998,-13.35l0,-3.75l14.22,-1.65l0,3.9c0,3.8 0.837,6.8 2.51,9c1.672,2.2 3.996,3.3 6.97,3.3c2.881,0 5.181,-0.9 6.901,-2.7c1.719,-1.8 2.579,-4.25 2.579,-7.35c-0,-3.4 -0.906,-6.65 -2.719,-9.75c-1.812,-3.1 -5.413,-7.4 -10.804,-12.9c-7.249,-7.4 -12.198,-13.55 -14.847,-18.45c-2.649,-4.9 -3.973,-10.25 -3.973,-16.05c-0,-7.9 1.998,-14.175 5.994,-18.825c3.997,-4.65 9.48,-6.975 16.451,-6.975c6.97,0 12.454,2.35 16.45,7.05c3.997,4.7 5.995,11 5.995,18.9l-0,2.7l-14.22,1.65l0,-3c0,-4 -0.697,-7.05 -2.091,-9.15c-1.394,-2.1 -3.392,-3.15 -5.995,-3.15c-2.602,0 -4.6,0.85 -5.994,2.55c-1.394,1.7 -2.092,4.2 -2.092,7.5c0,3.3 0.93,6.475 2.789,9.525c1.858,3.05 5.437,7.425 10.734,13.125c7.25,7.8 12.199,14.075 14.847,18.825c2.649,4.75 3.974,9.975 3.974,15.675c-0,5 -1,9.45 -2.998,13.35c-1.998,3.9 -4.809,6.95 -8.434,9.15c-3.625,2.2 -7.761,3.3 -12.408,3.3Z" style="fill:#fff;fill-rule:nonzero;"/><path d="M1446.5,635.27l47.121,0l-0,15l-16.172,0l0,90l-14.777,0l-0,-90l-16.172,0l0,-15Z" style="fill:#fff;fill-rule:nonzero;"/><path d="M1528.33,717.02l-15.893,0l-3.206,23.25l-14.778,0l16.172,-105l19.796,0l16.171,105l-15.056,0l-3.206,-23.25Zm-1.952,-15.3l-5.995,-43.95l-5.994,43.95l11.989,0Z" style="fill:#fff;fill-rule:nonzero;"/><g><path d="M972.235,240.753c-94.961,-136.884 -253.236,-226.591 -432.298,-226.591c-290.183,0 -525.775,235.592 -525.775,525.775c0,290.183 235.592,525.775 525.775,525.775c187.734,-0 352.619,-98.606 445.644,-246.806" style="fill:none;stroke:#fff;stroke-width:28.32px;"/><path d="M209.288,464.551c8.475,-1.305 14.297,-9.244 12.993,-17.719c-1.304,-8.475 -9.244,-14.297 -17.719,-12.993c-8.475,1.304 -14.297,9.244 -12.993,17.719c1.304,8.475 9.244,14.297 17.719,12.993l0,-0Zm-1.575,-10.238c-2.825,0.435 -5.472,-1.506 -5.907,-4.331c-0.434,-2.825 1.506,-5.471 4.331,-5.906c2.825,-0.435 5.472,1.506 5.907,4.331c0.434,2.825 -1.506,5.472 -4.331,5.906l-0,0Z" style="fill:none;"/><path d="M235.274,464.551c8.475,1.304 16.414,-4.518 17.719,-12.993c1.304,-8.475 -4.518,-16.415 -12.993,-17.719c-8.475,-1.304 -16.415,4.518 -17.719,12.993c-1.304,8.475 4.518,16.414 12.993,17.719l-0,-0Zm1.575,-10.238c-2.825,-0.434 -4.766,-3.081 -4.331,-5.906c0.435,-2.825 3.081,-4.766 5.906,-4.331c2.825,0.435 4.766,3.081 4.331,5.906c-0.434,2.825 -3.081,4.766 -5.906,4.331l-0,0Z" style="fill:none;"/><path d="M195.124,445.833c-36.389,11.526 -62.794,45.589 -62.794,85.771c0,49.645 40.306,89.951 89.951,89.951c49.645,-0 89.951,-40.306 89.951,-89.951c-0,-40.182 -26.405,-74.245 -62.794,-85.771c-2.725,-0.863 -5.638,0.648 -6.501,3.373c-0.863,2.725 0.648,5.638 3.373,6.501c32.2,10.199 55.564,40.341 55.564,75.897c-0,43.928 -35.665,79.593 -79.593,79.593c-43.929,-0 -79.593,-35.665 -79.593,-79.593c-0,-35.556 23.364,-65.698 55.564,-75.897c2.724,-0.863 4.236,-3.776 3.373,-6.501c-0.863,-2.725 -3.776,-4.236 -6.501,-3.373Z" style="fill:none;"/><circle cx="462.618" cy="573.27" r="47.956" style="fill:#fff;"/><circle cx="164.131" cy="532.601" r="69.074" style="fill:#fff;"/></g></g><path d="M593.186,930.81c-44.521,-3.674 -86.471,-13.384 -126.114,-27.546c-61.472,-21.96 -115.13,-55.874 -159.444,-97.853c-37.404,-35.433 -66.897,-76.918 -87.357,-122.514c-12.063,-26.884 -20.558,-55.188 -25.633,-84.573c-3.288,-19.038 -5.319,-38.503 -5.272,-58.387c-1.506,-50.81 9.232,-99.277 29.089,-143.859c20.466,-45.948 49.914,-87.871 87.555,-123.539c73.107,-69.276 173.138,-115.801 287.176,-123.475c-119.65,-8.052 -230.64,26.797 -315.427,89.868c-47.507,35.339 -86.232,79.781 -113.787,130.172c-28.186,51.546 -43.256,109.67 -45.068,170.833c0.65,48.992 9.614,96.274 27.93,139.622c27.081,64.094 71.837,120.427 129.307,163.308c52.892,39.465 115.959,67.78 185.249,81.17c42.255,8.166 86.281,10.53 131.796,6.773Z" style="fill:#fff;"/></g></svg>