<?xml version="1.0" encoding="UTF-8" standalone="no"?><!DOCTYPE svg PUBLIC "-//W3C//DTD SVG 1.1//EN" "http://www.w3.org/Graphics/SVG/1.1/DTD/svg11.dtd"><svg width="100%" height="100%" viewBox="0 0 861 835" version="1.1" xmlns="http://www.w3.org/2000/svg" xmlns:xlink="http://www.w3.org/1999/xlink" xml:space="preserve" xmlns:serif="http://www.serif.com/" style="fill-rule:evenodd;clip-rule:evenodd;stroke-linecap:square;stroke-linejoin:bevel;stroke-miterlimit:10;"><g><text x="14.28px" y="777.99px" style="font-family:'ArialMT', 'Arial', sans-serif;font-size:100px;">Evandro Luís Rosa</text><text x="14.28px" y="825.99px" style="font-family:'ArialMT', 'Arial', sans-serif;font-size:40px;fill:#bfbfbf;">Médico Oftalmologista Especialista em Retina</text><circle cx="329" cy="329" r="329" style="fill:url(#_Linear1);"/><g><path d="M214.34,617.31c-111.76,-41.74 -191.81,-154.16 -191.81,-286.3c-0,-132.14 80.05,-244.56 191.81,-286.3" style="fill:none;fill-rule:nonzero;stroke:#000;stroke-width:8px;"/><path d="M247.44,38.15l0,585.73l0,-0.06c25.86,8.37 45.8,14.27 74.2,14.27c33.42,0 67.27,-4.54 97.03,-15.98" style="fill:none;fill-rule:nonzero;stroke:#000;stroke-width:8px;"/><path d="M27.13,321.63l187.21,0" style="fill:none;fill-rule:nonzero;stroke:#000;stroke-width:8px;"/><path d="M623.36,428.7c-46.13,-51.61 -110.02,-87.57 -183.76,-97.42l0.06,-0.63l201.62,-0.21l-1.13,0.57c0.14,-132.05 -83.41,-244.32 -200.19,-285.99l-0.19,-0.61l-0.59,573.36" style="fill:none;fill-rule:nonzero;stroke:#000;stroke-width:8px;"/></g></g><defs><linearGradient id="_Linear1" x1="0" y1="0" x2="1" y2="0" gradientUnits="userSpaceOnUse" gradientTransform="matrix(-383.358,-534.943,534.943,-383.358,399.334,427.191)"><stop offset="0" style="stop-color:#fff;stop-opacity:1"/><stop offset="0.76" style="stop-color:#000;stop-opacity:1"/><stop offset="1" style="stop-color:#000;stop-opacity:1"/></linearGradient></defs></svg>