<svg version="1.1" id="prefix__Layer_1" xmlns="http://www.w3.org/2000/svg" x="0" y="0" viewBox="0 0 512 512" xml:space="preserve"><style>.prefix__st0{fill:#fff}</style><path class="prefix__st0" d="M46 254.4c0 79.3 63 64 63 0 0-64.1-63-79-63 0zm29.2 37.8c-7.6 0-13.3-16.2-13.3-37.7s5.7-37.7 13.3-37.7c8.4 0 17.7 16.1 17.7 37.7.1 21.5-9.3 37.7-17.7 37.7z"/><path class="prefix__st0" d="M490.7 408.3c-25.4-3.4-43.2-16.8-52.9-39.8-2.2-5.1-1.9-11 .7-16.2 40-79.3 27.8-179.6-38.9-247-94.5-95.5-254.4-81.6-330.2 32-8.1 12.2-18.3 23.4-30.3 33.3C20.2 186.3 0 217 0 256c0 39.1 20.2 69.7 39.2 85.4 11.9 9.9 22.1 21.1 30.4 33.4 71.4 107 218.8 126.3 315.4 45.1 8-6.8 20.2-5.6 26.9 2.5 19 23.2 47.7 34.6 75.7 34.6 9.9 0 18.9-6 22.6-15.2 6-14.8-3.6-31.3-19.5-33.5zm4.7 27.5c-1.3 3.3-4.5 5.4-8.1 5.3-26.9-.8-48.1-10.5-63.1-28.7-12.2-14.9-34.5-17.3-49.6-4.6C285.4 482.7 149 465 82.8 365.9c-9.1-13.6-20.4-26-33.5-36.9C34 316.3 16 289.6 16 256c0-33.5 18-60.3 33.4-73.1 13.1-10.9 24.4-23.2 33.4-36.7C153 41 301 28.4 388.3 116.6c61.5 62.2 73.1 154.9 36 228.5-4.7 9.4-5.2 20.2-1.2 29.6 8.3 19.6 26.4 44.2 65.5 49.4 5.5.8 8.9 6.5 6.8 11.7z"/><path class="prefix__st0" d="M421.2 256c0-134.5-146.7-217.5-261.7-150-25.8 15.1-47.3 36.8-62.4 62.6-2.9 5-2.4 11.2 1.3 15.6 28.4 33.8 28.4 109.9 0 143.6-3.7 4.3-4.2 10.6-1.3 15.6 15 25.8 36.6 47.5 62.4 62.6 115.9 68.1 261.7-16.6 261.7-150zm-309.4 80.7c31.8-39.8 32-121.5 0-161.5 13.6-22.8 32.9-42 55.8-55.5C272 58.5 405.2 133.9 405.2 256c0 15.1-2.1 29.6-6.1 43.4-.7-.7-21.5-11.5-26.9-37.8l-13-68c-.8-4.3-5-7.2-9.3-6.4-4.3.8-7.2 5-6.4 9.3l6 32.5-41.4-7.1c-4.3-.7-8.5 2.2-9.2 6.5-.7 4.4 2.2 8.5 6.5 9.2l47.3 8.1 3.9 19c7.2 35 35.3 48.4 37.2 50.2-6.2 15.4-14.8 29.6-25.3 42.1l-34-22.7c1.1-5.6.4-6.5-4.7-39.6-.7-4.4-4.8-7.4-9.1-6.7-4.4.7-7.4 4.8-6.7 9.1l4.8 31.4c.6 3.7-1.5 7.3-5 8.7l-22.1 8.6c-3.5-5.8-6.7-7-23-17.6-3.7-2.4-8.7-1.3-11.1 2.4-2.4 3.7-1.3 8.7 2.4 11.1l16.2 10.5c2.9 1.9 3.6 5.9 1.4 8.6l-11.7 14.5c-2.8 3.4-2.2 8.5 1.2 11.2 3.5 2.8 8.5 2.2 11.2-1.2 11.5-14.3 14.5-16.9 16-23.6 1.9-.2.8-.1 25.3-9.6 2.5-1 4.8-2.4 6.8-4l31.1 20.8c-73.4 71.6-193.6 55.2-245.7-32.2z"/><path class="prefix__st0" d="M273.2 128.7c.6-4.4-2.4-8.4-6.8-9-44.6-6.3-75.2 7.7-93.1 20.6-19.5 14.1-28.3 29.7-28.7 30.4-2.1 3.9-.7 8.7 3.1 10.9 3.8 2.1 8.7.8 10.9-3.1.3-.5 30.6-53.5 105.5-42.9 4.4.5 8.5-2.5 9.1-6.9z"/><circle class="prefix__st0" cx="293.3" cy="133.6" r="8"/></svg>