<?xml version="1.0" encoding="UTF-8" standalone="no"?>
<!DOCTYPE svg PUBLIC "-//W3C//DTD SVG 1.1//EN" "http://www.w3.org/Graphics/SVG/1.1/DTD/svg11.dtd">

<svg width="100%"
    height="100%" viewBox="0 0 209 195" version="1.1" xmlns="http://www.w3.org/2000/svg"
    xmlns:xlink="http://www.w3.org/1999/xlink" xml:space="preserve"
    style="fill-rule:evenodd;clip-rule:evenodd;stroke-linecap:round;stroke-linejoin:round;stroke-miterlimit:1.1;">
    <path
        d="M188.518,145.492c3.722,-0 7.291,-1.479 9.922,-4.11c2.632,-2.632 4.11,-6.201 4.11,-9.922c-0,-26.656 -0,-84.331 -0,-110.988c-0,-3.721 -1.478,-7.29 -4.11,-9.921c-2.631,-2.632 -6.2,-4.11 -9.922,-4.11c-36.109,-0 -131.936,-0 -168.046,-0c-3.721,-0 -7.29,1.478 -9.921,4.11c-2.632,2.631 -4.11,6.2 -4.11,9.921c-0,26.657 -0,84.332 -0,110.988c-0,3.721 1.478,7.29 4.11,9.922c2.631,2.631 6.2,4.11 9.921,4.11"
        style="fill:none;stroke:#000;stroke-width:12.88px;" />
    <path d="M97.903,145.492l-48.561,42.108l0,-42.108" style="fill:none;stroke:#000;stroke-width:12.88px;" />
    <path d="M49.342,145.492l-28.87,-0m77.431,-0l90.615,-0" style="fill:none;stroke:#000;stroke-width:12.88px;" />
    <path d="M47.332,60.795l114.752,-0" style="fill:none;stroke:#000;stroke-width:12.88px;" />
    <path d="M47.332,89.005l59.289,-0" style="fill:none;stroke:#000;stroke-width:12.88px;" />

</svg>