<?xml version="1.0" encoding="UTF-8" standalone="no"?><!DOCTYPE svg PUBLIC "-//W3C//DTD SVG 1.1//EN" "http://www.w3.org/Graphics/SVG/1.1/DTD/svg11.dtd"><svg width="100%" height="100%" viewBox="0 0 242 242" version="1.1" xmlns="http://www.w3.org/2000/svg" xmlns:xlink="http://www.w3.org/1999/xlink" xml:space="preserve" xmlns:serif="http://www.serif.com/" style="fill-rule:evenodd;clip-rule:evenodd;stroke-linecap:round;stroke-linejoin:round;stroke-miterlimit:1.5;"><g id="WhatsApp-Logo" serif:id="WhatsApp Logo"><g><circle cx="120.549" cy="120.549" r="120.399" style="fill:#00eb78;"/><clipPath id="_clip1"><circle cx="120.549" cy="120.549" r="120.399"/></clipPath><g clip-path="url(#_clip1)"><path d="M179.815,61.283c69.994,-0 126.82,56.826 126.82,126.82c-0,69.994 -56.826,126.821 -126.82,126.821c-69.994,-0 -126.821,-56.827 -126.821,-126.821c0,-35.738 14.815,-68.043 38.633,-91.104c22.83,-22.105 53.932,-35.716 88.188,-35.716Z" style="fill:#00cc68;stroke:#00eb78;stroke-width:5.14px;"/><circle cx="224.125" cy="240.947" r="103.576" style="fill:#00b85e;"/></g><circle cx="120.549" cy="120.549" r="120.399" style="fill:none;stroke:#00eb78;stroke-width:0.3px;"/></g><g><g><path id="bubble" d="M48.159,157.191l-7.588,25.313c-1.573,5.248 -0.139,10.937 3.736,14.811c3.874,3.874 9.562,5.309 14.81,3.736c0,-0 25.641,-7.687 25.641,-7.687c10.796,5.321 22.946,8.314 35.791,8.314c44.776,0 81.129,-36.353 81.129,-81.129c0,-44.777 -36.353,-81.13 -81.129,-81.13c-44.777,0 -81.13,36.353 -81.13,81.13c0,13.181 3.153,25.632 8.741,36.643l-0.001,-0.001Zm14.646,-1.583c-6.225,-10.224 -9.811,-22.226 -9.811,-35.059c0,-37.285 30.27,-67.555 67.555,-67.555c37.284,0 67.554,30.27 67.554,67.555c0,37.284 -30.27,67.554 -67.554,67.554c-12.52,0 -24.249,-3.413 -34.303,-9.357l-31.027,9.302c-0.465,0.139 -0.97,0.012 -1.314,-0.332c-0.343,-0.344 -0.471,-0.848 -0.331,-1.314l9.231,-30.794Z" style="fill:#fff;"/><g id="phone"><path d="M127.547,139.419c2.245,0.653 4.667,0.056 6.351,-1.565c1.615,-1.529 3.576,-3.417 4.758,-4.556c0.686,-0.66 1.566,-1.083 2.51,-1.206c0.115,-0.015 0.231,-0.03 0.347,-0.046c1.165,-0.152 2.349,0.046 3.402,0.567c2.81,1.393 8.654,4.288 12.365,6.127c2.043,1.012 3.335,3.095 3.335,5.375c0,0.955 0,1.975 0,2.901c0.001,2.213 -0.871,4.337 -2.426,5.912c-1.598,1.623 -3.262,3.04 -5.013,4.196c-2.2,1.455 -4.785,2.218 -7.422,2.194c-18.555,-0.271 -34.048,-7.365 -46.287,-21.733c-2.216,-2.558 -4.224,-5.116 -6.009,-7.674c-6.031,-8.746 -9.426,-19.04 -9.78,-29.658c-0.101,-1.81 -0.162,-3.631 -0.207,-4.979c-0.057,-1.703 0.313,-3.394 1.076,-4.918c1.307,-2.582 3.029,-4.884 5.163,-6.912c1.445,-1.386 3.37,-2.16 5.372,-2.16c1.179,-0.012 2.544,-0.012 3.697,-0.012c1.575,0 3.022,0.869 3.763,2.259c1.8,3.38 5.156,9.679 6.772,12.712c0.599,1.124 0.87,2.394 0.782,3.664c0,0 0,0 0,0c-0.115,1.664 -0.827,3.229 -2.006,4.408c-1.37,1.37 -3.22,3.22 -4.496,4.496c-0.983,0.983 -1.485,2.347 -1.375,3.732c1.126,13.101 9.288,22.215 25.328,26.876Z" style="fill:#fefefe;stroke:#fff;stroke-width:0.3px;"/></g></g></g></g></svg>