<?xml version="1.0" encoding="UTF-8" standalone="no"?><!DOCTYPE svg PUBLIC "-//W3C//DTD SVG 1.1//EN" "http://www.w3.org/Graphics/SVG/1.1/DTD/svg11.dtd"><svg width="100%" height="100%" viewBox="0 0 84 84" version="1.1" xmlns="http://www.w3.org/2000/svg" xmlns:xlink="http://www.w3.org/1999/xlink" xml:space="preserve" xmlns:serif="http://www.serif.com/" style="fill-rule:evenodd;clip-rule:evenodd;stroke-linecap:round;stroke-linejoin:round;stroke-miterlimit:1.5;"><g id="WhatsApp-Logo---Dark" serif:id="WhatsApp Logo - Dark"><g><g><path d="M4.486,60.445l-3.895,12.992c-0.808,2.693 -0.071,5.613 1.917,7.601c1.989,1.989 4.908,2.725 7.602,1.918c-0,-0 13.159,-3.945 13.159,-3.945c5.541,2.73 11.777,4.267 18.37,4.267c22.981,-0 41.638,-18.658 41.638,-41.639c0,-22.981 -18.657,-41.639 -41.638,-41.639c-22.981,0 -41.639,18.658 -41.639,41.639c0,6.765 1.618,13.155 4.486,18.806Z" style="fill:#31323d;"/><path d="M9.164,58.077l-3.404,11.356c-0.706,2.354 -0.063,4.906 1.675,6.644c1.738,1.738 4.29,2.382 6.645,1.676c-0,0 11.502,-3.448 11.502,-3.448c4.844,2.387 10.295,3.73 16.057,3.73c20.087,-0 36.395,-16.309 36.395,-36.396c0,-20.088 -16.308,-36.396 -36.395,-36.396c-20.088,0 -36.396,16.308 -36.396,36.396c0,5.913 1.414,11.499 3.921,16.438l-0,0Zm6.57,-0.71c-2.792,-4.587 -4.401,-9.971 -4.401,-15.728c-0,-16.726 13.579,-30.306 30.306,-30.306c16.726,-0 30.306,13.58 30.306,30.306c-0,16.726 -13.58,30.306 -30.306,30.306c-5.617,-0 -10.879,-1.532 -15.389,-4.198l-13.919,4.173c-0.209,0.062 -0.435,0.005 -0.589,-0.149c-0.155,-0.154 -0.212,-0.38 -0.149,-0.589l4.141,-13.815Z" style="fill:#fff;"/><path id="bubble" d="M15.316,57.621c-2.837,-4.661 -4.472,-10.132 -4.472,-15.982c0,-16.996 13.799,-30.795 30.795,-30.795c16.996,0 30.794,13.799 30.794,30.795c0,16.996 -13.798,30.795 -30.794,30.795c-5.708,-0 -11.054,-1.556 -15.637,-4.266l-14.144,4.24c-0.212,0.064 -0.442,0.006 -0.599,-0.151c-0.156,-0.157 -0.214,-0.387 -0.151,-0.599l4.208,-14.037Z" style="fill:#5b5e72;"/><g id="phone"><path d="M44.778,50.104c1.007,0.293 2.094,0.025 2.849,-0.702c0.725,-0.686 1.605,-1.533 2.135,-2.044c0.308,-0.296 0.702,-0.486 1.126,-0.541c0.051,-0.007 0.103,-0.013 0.156,-0.02c0.522,-0.068 1.053,0.02 1.526,0.254c1.26,0.625 3.882,1.924 5.547,2.749c0.916,0.454 1.496,1.388 1.496,2.411c0,0.429 0,0.886 0,1.301c0,0.993 -0.391,1.946 -1.088,2.653c-0.717,0.728 -1.464,1.364 -2.249,1.882c-0.987,0.653 -2.147,0.995 -3.33,0.984c-8.324,-0.121 -15.274,-3.304 -20.765,-9.749c-0.994,-1.148 -1.895,-2.296 -2.696,-3.443c-2.705,-3.924 -4.228,-8.542 -4.387,-13.305c-0.045,-0.812 -0.073,-1.629 -0.093,-2.234c-0.025,-0.764 0.14,-1.522 0.483,-2.206c0.586,-1.158 1.359,-2.191 2.316,-3.101c0.648,-0.622 1.512,-0.969 2.41,-0.969c0.529,-0.005 1.141,-0.005 1.659,-0.005c0.706,-0 1.355,0.389 1.688,1.013c0.807,1.516 2.313,4.342 3.038,5.703c0.268,0.504 0.39,1.074 0.35,1.644c0,-0 0,-0 0,-0c-0.051,0.746 -0.371,1.448 -0.9,1.977c-0.614,0.615 -1.444,1.445 -2.016,2.017c-0.441,0.441 -0.667,1.053 -0.617,1.674c0.505,5.878 4.167,9.966 11.362,12.057Z" style="fill:#fefefe;stroke:#fff;stroke-width:0.3px;"/></g></g></g></g></svg>