<?xml version="1.0" encoding="UTF-8" standalone="no"?><!DOCTYPE svg PUBLIC "-//W3C//DTD SVG 1.1//EN" "http://www.w3.org/Graphics/SVG/1.1/DTD/svg11.dtd"><svg width="100%" height="100%" viewBox="0 0 169 169" version="1.1" xmlns="http://www.w3.org/2000/svg" xmlns:xlink="http://www.w3.org/1999/xlink" xml:space="preserve" xmlns:serif="http://www.serif.com/" style="fill-rule:evenodd;clip-rule:evenodd;stroke-linecap:round;stroke-linejoin:round;stroke-miterlimit:1.5;"><g id="WhatsApp-Logo---No-Bg" serif:id="WhatsApp Logo - No Bg"><g><g><path d="M11.74,120.772l-7.589,25.313c-1.573,5.248 -0.138,10.936 3.736,14.811c3.874,3.874 9.563,5.308 14.811,3.735c-0,0 25.64,-7.686 25.64,-7.686c10.796,5.32 22.947,8.314 35.791,8.314c44.777,-0 81.13,-36.353 81.13,-81.13c-0,-44.776 -36.353,-81.129 -81.13,-81.129c-44.776,-0 -81.129,36.353 -81.129,81.129c-0,13.182 3.152,25.633 8.74,36.643l-0,-0Zm14.646,-1.583c-6.225,-10.224 -9.811,-22.226 -9.811,-35.06c-0,-37.284 30.27,-67.554 67.554,-67.554c37.285,-0 67.555,30.27 67.555,67.554c-0,37.285 -30.27,67.555 -67.555,67.555c-12.52,-0 -24.249,-3.414 -34.302,-9.357l-31.027,9.301c-0.466,0.14 -0.97,0.012 -1.314,-0.331c-0.344,-0.344 -0.471,-0.849 -0.331,-1.314l9.231,-30.794Z" style="fill:#fff;"/><path d="M8.525,121.047l-7.247,24.176c-1.89,6.305 -0.167,13.139 4.488,17.794c4.654,4.654 11.488,6.378 17.793,4.488c0,-0 24.523,-7.352 24.523,-7.352c10.926,5.194 23.149,8.106 36.047,8.106c46.432,-0 84.13,-37.698 84.13,-84.13c-0,-46.432 -37.698,-84.129 -84.13,-84.129c-46.432,-0 -84.129,37.697 -84.129,84.129c-0,13.24 3.067,25.768 8.525,36.918Zm2.353,2.598l-6.727,22.44c-1.573,5.248 -0.138,10.936 3.736,14.811c3.874,3.874 9.563,5.308 14.811,3.735c-0,0 25.64,-7.686 25.64,-7.686c10.796,5.32 22.947,8.314 35.791,8.314c44.777,-0 81.13,-36.353 81.13,-81.13c-0,-44.776 -36.353,-81.129 -81.13,-81.129c-44.776,-0 -81.129,36.353 -81.129,81.129c-0,13.182 3.152,25.633 8.74,36.643l-0.862,2.873l-0.042,-0.014l0.04,0.013l0.002,0.001Zm15.508,-4.456c-6.225,-10.224 -9.811,-22.226 -9.811,-35.06c-0,-37.284 30.27,-67.554 67.554,-67.554c37.285,-0 67.555,30.27 67.555,67.554c-0,37.285 -30.27,67.555 -67.555,67.555c-12.52,-0 -24.249,-3.414 -34.302,-9.357l-31.027,9.301c-0.466,0.14 -0.97,0.012 -1.314,-0.331c-0.344,-0.344 -0.471,-0.849 -0.331,-1.314l9.231,-30.794Zm-5.463,28.671l8.337,-27.81c0.244,-0.814 0.131,-1.695 -0.312,-2.421c-5.948,-9.769 -9.373,-21.238 -9.373,-33.5c-0,-35.628 28.926,-64.554 64.554,-64.554c35.629,-0 64.555,28.926 64.555,64.554c-0,35.629 -28.926,64.555 -64.555,64.555c-11.962,-0 -23.17,-3.261 -32.776,-8.94c-0.72,-0.426 -1.586,-0.531 -2.388,-0.291l-28.042,8.407Zm-10.53,-24.408l0.051,0.024l-0.064,-0.031l0.013,0.007Zm-0.152,-0.082l0.043,0.024l-0.07,-0.04l0.027,0.016Zm-0.148,-0.091l0.032,0.02l-0.071,-0.047l0.039,0.027Zm-0.142,-0.099l0.02,0.014l-0.072,-0.055l0.052,0.041Zm-0.136,-0.108l0.007,0.006l-0.077,-0.068l0.07,0.062Zm-0.255,-0.239l0.073,0.072l-0.079,-0.079l0.006,0.007Zm-0.117,-0.132l0.05,0.057l-0.066,-0.077l0.016,0.02Zm-0.11,-0.138l0.037,0.046l-0.062,-0.083l0.025,0.037Zm-0.101,-0.146l0.025,0.037l-0.062,-0.096l0.037,0.059Zm-0.093,-0.15l0.016,0.025l-0.071,-0.127l0.055,0.102Zm2.601,-1.495l0,0l-0,-0l-0,-0Z"/><path id="bubble" d="M25.455,119.755c-6.326,-10.39 -9.97,-22.585 -9.97,-35.626c0,-37.885 30.759,-68.644 68.644,-68.644c37.886,0 68.644,30.759 68.644,68.644c0,37.886 -30.758,68.644 -68.644,68.644c-12.722,0 -24.64,-3.468 -34.856,-9.508l-31.527,9.452c-0.473,0.142 -0.986,0.012 -1.335,-0.337c-0.349,-0.349 -0.479,-0.862 -0.337,-1.335l9.381,-31.29Z" style="fill:#00eb78;"/><g id="phone"><path d="M91.128,103c2.244,0.653 4.667,0.056 6.35,-1.566c1.615,-1.528 3.576,-3.416 4.759,-4.555c0.686,-0.661 1.566,-1.084 2.51,-1.207c0.114,-0.015 0.231,-0.03 0.347,-0.045c1.165,-0.152 2.349,0.045 3.402,0.567c2.81,1.392 8.653,4.288 12.365,6.127c2.042,1.012 3.335,3.095 3.335,5.375c-0,0.955 -0,1.974 -0,2.901c0,2.213 -0.872,4.337 -2.427,5.912c-1.598,1.623 -3.261,3.04 -5.012,4.196c-2.2,1.454 -4.785,2.218 -7.423,2.193c-18.555,-0.271 -34.048,-7.365 -46.287,-21.732c-2.215,-2.558 -4.224,-5.116 -6.009,-7.674c-6.031,-8.747 -9.425,-19.04 -9.779,-29.658c-0.102,-1.81 -0.162,-3.631 -0.207,-4.979c-0.057,-1.704 0.312,-3.394 1.075,-4.918c1.308,-2.582 3.03,-4.884 5.164,-6.912c1.444,-1.386 3.369,-2.16 5.371,-2.16c1.18,-0.012 2.544,-0.012 3.698,-0.012c1.575,-0 3.022,0.868 3.763,2.259c1.8,3.379 5.156,9.678 6.771,12.712c0.599,1.124 0.87,2.393 0.783,3.664c-0,-0 -0,-0 -0,-0c-0.115,1.663 -0.828,3.229 -2.007,4.408c-1.369,1.37 -3.219,3.22 -4.495,4.496c-0.983,0.982 -1.486,2.346 -1.376,3.732c1.127,13.1 9.289,22.215 25.329,26.876Z" style="fill:#fefefe;stroke:#fff;stroke-width:0.3px;"/></g></g></g></g></svg>